<svg id="svg" version="1.1" xmlns="http://www.w3.org/2000/svg" xmlns:xlink="http://www.w3.org/1999/xlink" width="400" height="400" viewBox="0, 0, 400,400"><g id="svgg"><path id="path0" d="M234.600 175.661 C 221.208 177.153,207.278 185.212,199.101 196.200 C 195.075 201.610,193.241 202.357,187.799 200.799 C 152.758 190.767,121.521 228.322,137.560 261.200 C 144.378 275.175,160.238 285.588,174.723 285.599 C 179.157 285.602,181.219 286.909,182.429 290.486 L 183.144 292.600 188.518 292.711 L 193.892 292.822 194.124 291.393 C 194.355 289.964,195.452 287.960,203.201 274.800 C 205.467 270.950,209.920 263.346,213.096 257.901 C 221.719 243.119,218.870 244.333,244.563 244.485 L 263.932 244.600 265.658 245.814 C 270.127 248.955,269.799 251.354,263.628 260.640 L 258.869 267.800 266.607 268.000 C 276.040 268.244,277.771 269.092,278.293 273.731 C 278.653 276.923,278.329 277.409,270.770 285.014 C 266.827 288.981,263.600 292.356,263.600 292.514 C 263.600 292.671,267.822 292.800,272.982 292.800 L 282.364 292.800 282.644 291.300 C 283.365 287.439,285.257 286.089,290.663 285.575 C 330.557 281.788,335.967 228.423,297.600 217.152 C 293.155 215.846,291.736 214.633,290.596 211.164 C 282.958 187.925,259.279 172.912,234.600 175.661 " stroke="none" fill="#dcdcdc" fill-rule="evenodd"></path><path id="path1" d="M186.800 111.551 C 146.665 117.936,122.408 157.814,135.065 196.600 C 135.639 198.360,136.360 200.296,136.666 200.902 L 137.223 202.004 140.311 199.459 C 147.413 193.608,154.441 190.161,164.218 187.735 C 169.469 186.432,181.999 186.112,186.726 187.160 L 189.251 187.720 190.481 186.160 C 204.743 168.069,232.972 158.394,255.500 163.876 C 258.195 164.532,260.400 164.931,260.400 164.761 C 260.400 164.592,259.874 162.417,259.230 159.927 C 250.877 127.595,219.151 106.405,186.800 111.551 M226.564 260.509 C 225.664 262.099,224.025 264.930,222.922 266.800 C 219.227 273.062,216.705 277.385,215.688 279.200 C 215.133 280.190,214.076 281.948,213.340 283.108 C 212.603 284.267,212.000 285.302,212.000 285.408 C 212.000 285.513,215.123 285.600,218.940 285.600 C 228.067 285.600,229.627 286.149,231.043 289.857 C 232.028 292.435,231.782 293.152,225.584 305.800 C 222.458 312.180,219.816 317.580,219.713 317.800 C 219.611 318.020,227.759 309.947,237.821 299.859 C 251.653 285.993,255.980 281.431,255.558 281.158 C 255.251 280.960,252.741 280.821,249.979 280.850 C 244.605 280.906,243.445 280.609,241.750 278.738 C 238.704 275.377,239.031 274.006,245.005 265.079 L 250.011 257.600 239.105 257.609 L 228.200 257.617 226.564 260.509 " stroke="none" fill="#faba27" fill-rule="evenodd"></path><path id="path2" d="M194.231 41.549 C 194.139 41.699,194.904 41.772,195.931 41.710 C 198.786 41.538,199.374 42.134,196.600 42.387 C 195.280 42.507,194.015 42.481,193.790 42.328 C 193.564 42.176,192.788 42.337,192.066 42.687 C 191.139 43.136,190.903 43.417,191.266 43.641 C 191.637 43.870,191.505 44.069,190.790 44.354 C 190.246 44.571,190.008 44.761,190.263 44.775 C 190.796 44.804,190.493 46.400,189.953 46.400 C 189.759 46.400,189.600 46.681,189.600 47.024 C 189.600 47.406,189.407 47.538,189.100 47.365 C 188.700 47.139,188.700 47.190,189.100 47.621 C 189.806 48.382,189.825 76.015,189.120 76.720 C 188.747 77.093,188.747 77.200,189.120 77.200 C 189.384 77.200,189.600 77.391,189.600 77.624 C 189.600 77.857,189.420 77.936,189.200 77.800 C 188.687 77.483,188.692 77.850,189.214 78.826 C 189.442 79.252,189.824 79.600,190.063 79.600 C 190.348 79.600,190.327 79.393,190.000 79.000 C 189.656 78.585,189.641 78.400,189.951 78.400 C 190.379 78.400,190.552 78.897,190.446 79.829 C 190.419 80.065,190.877 80.695,191.463 81.229 C 192.049 81.763,192.380 81.944,192.199 81.632 C 191.950 81.203,192.040 81.130,192.567 81.332 C 192.951 81.479,193.341 81.600,193.433 81.600 C 193.525 81.600,193.600 81.791,193.600 82.024 C 193.600 82.257,193.420 82.336,193.200 82.200 C 192.980 82.064,192.800 82.147,192.800 82.384 C 192.800 82.644,193.197 82.716,193.800 82.564 C 194.485 82.392,194.800 82.478,194.800 82.837 C 194.800 83.244,194.907 83.253,195.280 82.880 C 195.860 82.300,197.600 82.240,197.600 82.800 C 197.600 83.020,197.791 83.200,198.024 83.200 C 198.257 83.200,198.336 83.020,198.200 82.800 C 198.064 82.580,198.128 82.400,198.343 82.400 C 198.558 82.400,198.824 82.625,198.935 82.900 C 199.090 83.285,199.144 83.279,199.168 82.876 C 199.187 82.567,199.404 82.476,199.700 82.653 C 199.988 82.826,199.945 82.639,199.600 82.212 C 199.040 81.521,199.072 81.485,200.063 81.673 C 200.893 81.831,201.076 81.743,200.896 81.272 C 200.755 80.906,200.832 80.772,201.090 80.932 C 201.780 81.358,203.236 79.893,203.412 78.596 C 203.529 77.732,203.616 52.192,203.515 48.200 C 203.509 47.980,203.647 47.455,203.820 47.034 C 204.042 46.498,203.997 46.354,203.673 46.555 C 203.374 46.739,203.290 46.630,203.437 46.248 C 203.586 45.860,203.238 45.433,202.432 45.017 C 201.755 44.666,201.200 44.182,201.200 43.941 C 201.200 43.664,201.459 43.705,201.900 44.051 C 202.533 44.548,202.548 44.534,202.055 43.904 C 201.755 43.522,201.350 43.307,201.155 43.428 C 200.960 43.549,200.786 43.322,200.768 42.924 C 200.750 42.504,200.652 42.410,200.535 42.700 C 200.424 42.975,200.174 43.200,199.979 43.200 C 199.784 43.200,199.740 42.900,199.881 42.534 C 200.040 42.120,199.977 41.967,199.713 42.130 C 199.481 42.274,199.077 42.134,198.816 41.819 C 198.331 41.234,194.563 41.013,194.231 41.549 M130.498 58.694 C 130.221 58.790,130.067 58.988,130.156 59.134 C 130.244 59.280,130.031 59.664,129.682 59.987 C 129.120 60.507,129.078 60.496,129.311 59.887 C 129.681 58.923,129.099 59.030,128.467 60.042 C 128.178 60.505,128.134 60.764,128.370 60.618 C 128.607 60.472,128.800 60.449,128.800 60.566 C 128.800 60.683,128.234 61.072,127.542 61.430 C 126.572 61.932,126.411 62.162,126.842 62.434 C 127.309 62.730,127.302 62.789,126.800 62.794 C 126.312 62.799,126.214 63.380,126.274 65.900 C 126.362 69.553,127.021 71.847,127.797 71.203 C 128.487 70.630,128.911 71.715,128.269 72.410 C 127.910 72.798,127.911 72.855,128.272 72.652 C 128.532 72.506,128.858 72.570,128.996 72.793 C 129.134 73.017,129.060 73.200,128.832 73.200 C 128.227 73.200,129.164 75.101,129.911 75.387 C 130.409 75.578,130.426 75.513,130.008 75.009 C 129.662 74.592,129.644 74.400,129.951 74.400 C 130.392 74.400,130.557 74.915,130.431 75.895 C 130.354 76.492,131.068 77.931,131.931 78.919 C 132.276 79.315,132.603 79.941,132.658 80.312 C 132.712 80.682,132.947 81.049,133.181 81.127 C 133.414 81.205,133.479 81.478,133.326 81.734 C 133.172 81.990,133.369 81.938,133.763 81.618 C 134.417 81.087,134.468 81.121,134.350 82.020 C 134.157 83.493,135.176 85.718,135.804 85.196 C 136.167 84.895,136.375 84.958,136.553 85.423 C 136.896 86.315,136.863 86.486,136.405 86.203 C 136.151 86.046,136.138 86.288,136.367 86.880 C 136.563 87.386,136.875 87.772,137.062 87.738 C 137.248 87.704,137.664 87.964,137.987 88.314 C 138.508 88.880,138.496 88.923,137.887 88.689 C 137.051 88.368,137.005 88.662,137.771 89.429 C 138.476 90.133,138.946 90.176,138.565 89.500 C 138.354 89.126,138.423 89.131,138.838 89.517 C 139.256 89.906,139.276 90.106,138.918 90.327 C 138.604 90.521,138.569 90.822,138.815 91.211 C 139.020 91.535,139.191 91.643,139.194 91.451 C 139.202 90.965,140.400 92.005,140.400 92.498 C 140.400 92.718,140.099 92.651,139.732 92.349 C 139.365 92.047,139.568 92.565,140.185 93.500 C 141.310 95.205,141.879 95.704,141.463 94.620 C 141.315 94.233,141.433 94.115,141.820 94.263 C 142.139 94.386,142.400 94.726,142.400 95.020 C 142.400 95.624,143.912 96.800,144.689 96.800 C 144.970 96.800,145.200 96.609,145.200 96.376 C 145.200 96.143,145.021 96.063,144.803 96.198 C 144.585 96.333,144.090 96.259,143.703 96.034 C 143.158 95.716,143.473 95.622,145.100 95.612 C 146.705 95.603,147.200 95.741,147.200 96.200 C 147.200 97.133,148.257 96.907,149.139 95.787 C 149.676 95.104,150.030 94.925,150.223 95.237 C 150.402 95.527,150.707 95.233,151.036 94.451 C 151.368 93.660,151.847 93.200,152.338 93.200 C 153.282 93.200,153.712 92.273,153.069 91.625 C 152.709 91.263,152.779 91.221,153.369 91.446 C 154.015 91.692,154.087 91.615,153.813 90.969 C 153.298 89.755,153.056 87.864,153.446 88.105 C 153.641 88.225,153.826 87.891,153.858 87.362 C 153.889 86.833,153.744 86.400,153.534 86.400 C 153.324 86.400,153.255 86.235,153.380 86.032 C 153.505 85.830,153.344 85.401,153.023 85.080 C 152.701 84.758,152.565 84.345,152.719 84.161 C 152.874 83.977,152.659 84.089,152.242 84.410 C 151.543 84.949,151.506 84.926,151.764 84.114 C 151.970 83.465,151.828 83.099,151.222 82.721 C 150.770 82.438,150.400 82.060,150.400 81.880 C 150.400 81.700,150.611 81.683,150.868 81.842 C 151.187 82.039,151.251 81.909,151.068 81.433 C 150.921 81.049,150.800 80.637,150.800 80.518 C 150.800 80.399,150.544 80.514,150.231 80.774 C 149.762 81.163,149.698 81.085,149.866 80.323 C 150.032 79.569,149.987 79.510,149.617 80.000 C 149.233 80.509,149.174 80.479,149.228 79.800 C 149.339 78.415,149.213 77.945,148.800 78.200 C 148.580 78.336,148.400 78.077,148.400 77.624 C 148.400 77.171,148.209 76.800,147.976 76.800 C 147.743 76.800,147.683 76.589,147.842 76.332 C 148.044 76.005,147.900 75.952,147.366 76.156 C 146.778 76.379,146.709 76.337,147.069 75.975 C 147.591 75.449,147.321 74.278,146.758 74.626 C 146.561 74.748,146.400 74.531,146.400 74.145 C 146.400 73.760,145.905 72.911,145.300 72.260 C 144.695 71.609,144.425 71.205,144.700 71.362 C 145.388 71.754,145.329 71.271,144.600 70.543 C 144.179 70.122,144.000 70.091,144.000 70.438 C 144.000 71.087,143.469 70.549,143.357 69.787 C 143.308 69.455,143.474 69.298,143.735 69.429 C 143.991 69.556,143.840 69.332,143.400 68.930 C 142.960 68.529,142.600 67.855,142.600 67.433 C 142.600 67.012,142.330 66.577,142.000 66.468 C 141.467 66.292,141.467 66.355,142.000 67.035 C 142.547 67.733,142.542 67.755,141.937 67.282 C 141.561 66.988,141.322 66.330,141.385 65.759 C 141.462 65.052,141.037 64.263,139.947 63.095 C 138.358 61.391,137.930 60.712,139.009 61.608 C 139.508 62.021,139.577 62.012,139.392 61.557 C 139.268 61.250,138.679 60.648,138.083 60.219 C 137.209 59.588,137.107 59.570,137.557 60.128 C 138.043 60.732,138.031 60.787,137.457 60.566 C 137.095 60.428,136.800 59.993,136.800 59.600 C 136.800 58.862,135.768 58.204,135.441 58.734 C 135.127 59.241,132.400 59.268,132.400 58.764 C 132.400 58.417,132.260 58.418,131.839 58.768 C 131.530 59.024,131.215 59.073,131.139 58.877 C 131.063 58.681,130.774 58.598,130.498 58.694 M256.531 58.936 C 255.483 59.514,252.984 62.058,253.755 61.762 C 254.564 61.451,254.585 61.872,253.800 62.657 C 253.337 63.120,253.197 63.136,253.188 62.729 C 253.180 62.394,253.026 62.456,252.770 62.897 C 252.546 63.280,252.393 63.820,252.429 64.097 C 252.558 65.083,252.393 65.600,251.951 65.600 C 251.644 65.600,251.662 65.408,252.008 64.991 C 252.426 64.487,252.409 64.422,251.911 64.613 C 251.164 64.899,250.227 66.800,250.832 66.800 C 251.060 66.800,251.134 66.983,250.996 67.207 C 250.858 67.430,250.532 67.486,250.272 67.330 C 249.916 67.116,249.917 67.191,250.277 67.637 C 250.551 67.975,250.615 68.453,250.427 68.756 C 250.170 69.172,250.034 69.179,249.793 68.789 C 249.575 68.435,249.339 68.566,248.977 69.243 C 248.593 69.961,248.582 70.268,248.934 70.491 C 249.244 70.689,249.179 70.790,248.737 70.794 C 248.256 70.798,248.137 71.037,248.302 71.667 C 248.473 72.321,248.382 72.479,247.936 72.307 C 247.169 72.013,246.291 73.331,246.869 73.909 C 247.151 74.191,247.009 74.407,246.417 74.594 C 245.520 74.879,244.710 76.371,244.640 77.867 C 244.618 78.343,244.436 78.883,244.236 79.067 C 244.024 79.260,243.992 79.190,244.159 78.900 C 244.318 78.625,244.257 78.400,244.024 78.400 C 243.662 78.400,243.539 78.831,243.618 79.822 C 243.627 79.944,243.222 80.407,242.718 80.852 C 242.213 81.297,242.009 81.556,242.265 81.429 C 242.526 81.298,242.692 81.455,242.643 81.787 C 242.531 82.549,242.000 83.087,242.000 82.438 C 242.000 82.091,241.821 82.122,241.400 82.543 C 240.671 83.271,240.612 83.754,241.300 83.362 C 241.575 83.205,241.327 83.599,240.749 84.238 C 239.197 85.953,238.633 87.193,239.163 87.723 C 239.403 87.963,239.600 88.934,239.600 89.880 C 239.600 90.826,239.780 91.600,240.000 91.600 C 240.220 91.600,240.400 91.799,240.400 92.043 C 240.400 92.286,240.121 92.378,239.779 92.247 C 239.423 92.111,239.263 92.178,239.403 92.405 C 239.537 92.622,239.885 92.800,240.175 92.800 C 240.465 92.800,240.930 93.074,241.208 93.409 C 241.635 93.924,241.601 93.975,240.991 93.741 C 240.494 93.550,240.359 93.610,240.558 93.932 C 240.717 94.189,241.153 94.400,241.527 94.400 C 241.901 94.400,242.437 94.767,242.717 95.216 C 242.997 95.664,243.409 95.918,243.633 95.779 C 243.857 95.641,245.565 95.516,247.427 95.501 L 250.814 95.474 252.207 93.885 C 252.973 93.011,253.600 92.147,253.600 91.966 C 253.600 91.784,254.056 90.964,254.613 90.143 C 255.169 89.323,255.599 88.370,255.566 88.026 C 255.458 86.869,255.597 86.400,256.049 86.400 C 256.356 86.400,256.338 86.592,255.992 87.009 C 255.574 87.513,255.591 87.578,256.089 87.387 C 256.836 87.101,257.773 85.200,257.168 85.200 C 256.940 85.200,256.866 85.017,257.004 84.793 C 257.142 84.570,257.468 84.506,257.728 84.652 C 258.089 84.855,258.090 84.798,257.731 84.410 C 257.095 83.721,257.513 82.629,258.196 83.196 C 258.785 83.686,259.867 81.500,259.657 80.244 C 259.571 79.730,259.711 79.557,260.094 79.704 C 260.838 79.989,261.695 78.655,261.131 78.091 C 260.849 77.809,260.991 77.593,261.583 77.406 C 262.489 77.118,263.309 75.616,263.383 74.107 C 263.407 73.615,263.682 72.985,263.994 72.707 C 264.456 72.294,264.454 72.342,263.981 72.965 C 263.470 73.637,263.473 73.706,264.000 73.532 C 264.330 73.423,264.600 72.988,264.600 72.567 C 264.600 72.145,264.924 71.559,265.319 71.264 C 265.858 70.862,265.929 70.596,265.600 70.200 C 265.326 69.870,265.306 69.582,265.546 69.433 C 265.758 69.302,265.998 69.395,266.080 69.640 C 266.162 69.885,266.582 69.410,267.014 68.586 C 267.599 67.470,267.672 67.041,267.300 66.910 C 267.025 66.813,266.800 66.334,266.800 65.847 C 266.800 65.359,267.025 64.731,267.300 64.451 C 267.701 64.044,267.691 63.968,267.250 64.071 C 266.947 64.142,266.609 63.950,266.498 63.644 C 266.374 63.304,266.471 63.197,266.748 63.368 C 266.997 63.522,267.200 63.457,267.200 63.224 C 267.200 62.991,266.851 62.800,266.424 62.800 C 265.533 62.800,264.997 62.173,265.579 61.813 C 265.809 61.671,265.687 61.272,265.285 60.850 C 264.880 60.423,264.421 60.264,264.163 60.461 C 263.612 60.880,263.200 60.483,263.200 59.533 C 263.200 59.130,263.009 58.800,262.776 58.800 C 262.543 58.800,262.488 59.025,262.653 59.300 C 262.893 59.699,262.829 59.700,262.340 59.303 C 262.003 59.030,261.608 58.925,261.463 59.070 C 261.318 59.215,261.200 59.123,261.200 58.867 C 261.200 58.610,261.009 58.400,260.776 58.400 C 260.543 58.400,260.464 58.580,260.600 58.800 C 260.744 59.033,260.337 59.200,259.624 59.200 C 258.951 59.200,258.400 59.050,258.400 58.867 C 258.400 58.411,257.418 58.447,256.531 58.936 M125.261 66.016 C 125.252 67.156,125.336 67.997,125.447 67.886 C 125.717 67.616,125.751 64.417,125.486 64.153 C 125.371 64.038,125.270 64.876,125.261 66.016 M132.387 78.471 C 132.379 78.803,132.156 78.711,131.787 78.224 C 131.020 77.209,131.029 76.572,131.800 77.343 C 132.130 77.673,132.394 78.181,132.387 78.471 M238.400 89.200 C 238.400 89.947,238.507 90.053,238.880 89.680 C 239.253 89.307,239.253 89.093,238.880 88.720 C 238.507 88.347,238.400 88.453,238.400 89.200 M254.365 90.065 C 254.075 90.607,253.798 90.795,253.704 90.513 C 253.615 90.246,253.780 89.770,254.071 89.454 C 254.811 88.651,254.958 88.957,254.365 90.065 M251.230 94.511 L 250.304 95.400 251.006 94.288 C 251.392 93.676,251.809 93.276,251.932 93.399 C 252.055 93.522,251.739 94.022,251.230 94.511 M192.655 97.000 C 192.934 97.725,191.970 97.810,191.280 97.120 C 190.907 96.747,190.800 96.747,190.800 97.120 C 190.800 97.389,190.261 97.600,189.576 97.600 C 188.863 97.600,188.456 97.433,188.600 97.200 C 188.736 96.980,188.477 96.800,188.024 96.800 C 187.481 96.800,187.200 97.059,187.200 97.561 C 187.200 98.190,186.851 98.347,185.200 98.461 C 184.100 98.538,183.200 98.510,183.200 98.400 C 183.200 98.290,182.750 98.200,182.200 98.200 C 181.650 98.200,181.200 98.346,181.200 98.524 C 181.200 98.702,181.020 98.736,180.800 98.600 C 180.580 98.464,180.400 98.543,180.400 98.776 C 180.400 99.328,179.309 99.328,179.126 98.777 C 179.048 98.545,178.674 98.473,178.295 98.619 C 177.915 98.765,177.704 99.045,177.826 99.242 C 177.948 99.439,177.857 99.600,177.624 99.600 C 177.391 99.600,177.200 99.409,177.200 99.176 C 177.200 98.937,176.983 98.889,176.700 99.066 C 176.425 99.239,175.907 99.332,175.549 99.273 C 175.191 99.214,174.782 99.469,174.640 99.840 C 174.446 100.345,174.509 100.413,174.891 100.111 C 175.473 99.652,176.800 99.589,176.800 100.021 C 176.800 100.475,174.510 100.693,173.817 100.305 C 173.389 100.066,173.120 100.143,172.964 100.549 C 172.838 100.877,172.389 101.075,171.958 100.992 C 171.529 100.909,171.284 101.012,171.413 101.221 C 171.542 101.429,171.367 101.600,171.024 101.600 C 170.681 101.600,170.400 101.780,170.400 102.000 C 170.400 102.220,169.995 102.394,169.500 102.387 C 168.623 102.375,168.619 102.360,169.376 101.787 C 169.826 101.447,169.937 101.200,169.641 101.200 C 169.359 101.200,168.771 101.605,168.334 102.100 C 167.897 102.595,167.664 102.757,167.818 102.460 C 168.042 102.025,167.932 102.008,167.248 102.374 C 166.782 102.624,166.400 103.002,166.400 103.214 C 166.400 103.426,166.209 103.600,165.976 103.600 C 165.743 103.600,165.664 103.420,165.800 103.200 C 166.179 102.587,165.446 102.725,164.576 103.430 C 164.149 103.776,164.013 103.953,164.272 103.823 C 164.532 103.693,164.846 103.751,164.970 103.952 C 165.313 104.506,164.161 104.801,163.649 104.289 C 163.317 103.957,163.200 103.983,163.200 104.387 C 163.200 104.687,163.080 104.813,162.932 104.666 C 162.785 104.519,162.304 104.714,161.864 105.099 C 161.423 105.485,161.194 105.575,161.355 105.300 C 161.516 105.025,161.457 104.800,161.224 104.800 C 160.991 104.800,160.800 104.991,160.800 105.224 C 160.800 105.457,160.575 105.512,160.300 105.347 C 159.960 105.143,159.976 105.263,160.349 105.723 C 160.891 106.391,160.359 106.676,159.035 106.426 C 158.135 106.256,156.395 107.312,156.790 107.788 C 157.081 108.139,156.915 108.401,156.197 108.729 C 155.512 109.041,155.200 109.050,155.200 108.758 C 155.200 108.524,154.975 108.416,154.700 108.517 C 154.425 108.617,154.249 108.916,154.310 109.180 C 154.370 109.444,154.250 109.554,154.042 109.426 C 153.834 109.298,153.393 109.464,153.061 109.796 C 152.729 110.128,152.299 110.400,152.105 110.400 C 151.911 110.400,151.404 110.670,150.976 111.001 C 150.212 111.593,150.212 111.598,151.000 111.333 C 151.789 111.068,151.789 111.077,151.039 111.931 C 150.455 112.597,150.153 112.693,149.736 112.347 C 149.308 111.991,149.103 112.159,148.758 113.149 C 148.518 113.837,148.047 114.400,147.712 114.400 C 147.189 114.400,147.180 114.301,147.651 113.700 C 148.150 113.063,148.136 113.051,147.490 113.557 C 147.100 113.863,146.866 114.200,146.971 114.305 C 147.271 114.604,146.121 115.600,145.477 115.600 C 145.158 115.600,144.676 116.134,144.406 116.787 C 144.135 117.439,143.528 118.092,143.057 118.236 C 142.071 118.539,140.547 120.023,140.710 120.522 C 140.770 120.708,140.678 120.772,140.505 120.665 C 140.333 120.558,139.844 120.725,139.419 121.035 C 138.864 121.441,138.809 121.604,139.224 121.613 C 139.693 121.623,139.681 121.716,139.160 122.113 C 138.808 122.381,138.507 122.775,138.490 122.990 C 138.444 123.583,137.600 123.741,137.600 123.157 C 137.600 122.864,137.364 122.970,137.044 123.407 C 136.739 123.825,136.565 124.365,136.659 124.608 C 136.752 124.852,136.420 125.399,135.921 125.825 C 135.020 126.595,135.018 126.594,135.557 125.800 C 135.855 125.360,135.634 125.497,135.065 126.105 C 134.495 126.713,134.123 127.455,134.238 127.754 C 134.352 128.052,134.156 128.408,133.802 128.544 C 133.365 128.712,133.248 128.632,133.438 128.295 C 133.650 127.920,133.585 127.923,133.172 128.307 C 132.871 128.586,132.605 129.306,132.580 129.907 C 132.547 130.689,132.297 131.035,131.701 131.123 C 130.896 131.243,130.061 132.400,130.779 132.400 C 130.974 132.400,131.224 132.175,131.335 131.900 C 131.494 131.507,131.544 131.509,131.568 131.910 C 131.586 132.190,131.150 132.591,130.600 132.800 C 129.975 133.038,129.600 133.493,129.600 134.014 C 129.600 134.472,129.439 134.748,129.242 134.626 C 128.720 134.304,128.390 135.430,128.866 135.906 C 129.138 136.178,129.107 136.410,128.773 136.617 C 128.453 136.815,128.378 136.759,128.562 136.462 C 128.719 136.208,128.652 136.000,128.414 136.000 C 128.175 136.000,127.873 136.537,127.741 137.194 C 127.610 137.850,127.345 138.289,127.151 138.170 C 126.958 138.050,126.785 138.098,126.766 138.276 C 126.747 138.454,126.689 139.165,126.638 139.856 C 126.545 141.114,125.513 142.580,125.048 142.114 C 124.911 141.978,124.800 142.077,124.800 142.333 C 124.800 143.195,124.734 143.397,124.266 143.977 C 123.892 144.439,123.919 144.495,124.400 144.258 C 124.730 144.096,124.595 144.263,124.100 144.630 C 123.605 144.997,123.200 145.478,123.200 145.698 C 123.200 145.921,123.465 145.878,123.800 145.600 C 124.291 145.192,124.400 145.220,124.400 145.751 C 124.400 146.108,124.220 146.400,124.000 146.400 C 123.780 146.400,123.600 146.670,123.600 147.000 C 123.600 147.330,123.375 147.555,123.100 147.500 C 122.808 147.442,122.620 147.775,122.648 148.300 C 122.674 148.795,122.503 149.200,122.268 149.200 C 121.976 149.200,121.970 149.330,122.249 149.609 C 122.814 150.174,122.447 152.297,121.738 152.569 C 121.414 152.693,121.266 152.616,121.403 152.395 C 121.537 152.178,121.541 152.000,121.411 152.000 C 120.909 152.000,120.502 153.812,120.895 154.300 C 121.170 154.641,121.159 154.800,120.862 154.800 C 120.619 154.800,120.538 155.095,120.681 155.466 C 120.833 155.862,120.774 156.031,120.535 155.883 C 120.314 155.747,120.133 155.897,120.133 156.218 C 120.133 156.538,120.247 156.800,120.386 156.800 C 120.526 156.800,120.566 157.430,120.476 158.200 C 120.353 159.249,120.123 159.600,119.556 159.600 C 119.140 159.600,118.800 159.791,118.800 160.024 C 118.800 160.257,118.980 160.336,119.200 160.200 C 119.434 160.055,119.600 160.477,119.600 161.219 C 119.600 162.260,119.475 162.438,118.900 162.219 C 118.339 162.005,118.299 162.052,118.700 162.456 C 118.975 162.733,119.200 163.284,119.200 163.680 C 119.200 164.076,118.975 164.403,118.700 164.406 C 118.390 164.410,118.352 164.524,118.600 164.706 C 119.212 165.155,119.306 166.126,118.716 165.900 C 118.343 165.757,118.200 166.186,118.200 167.451 C 118.200 168.413,118.290 169.200,118.400 169.200 C 118.510 169.200,118.600 172.260,118.600 176.000 C 118.600 179.740,118.510 182.800,118.400 182.800 C 117.970 182.799,118.377 187.338,118.832 187.620 C 119.098 187.784,119.216 188.297,119.095 188.759 C 118.974 189.222,119.038 189.600,119.237 189.600 C 119.437 189.600,119.600 190.151,119.600 190.824 C 119.600 191.537,119.433 191.944,119.200 191.800 C 118.980 191.664,118.800 191.743,118.800 191.976 C 118.800 192.209,119.174 192.400,119.631 192.400 C 120.381 192.400,120.446 192.592,120.303 194.379 C 120.205 195.617,120.293 196.266,120.541 196.113 C 120.773 195.969,120.831 196.143,120.681 196.534 C 120.540 196.900,120.589 197.200,120.790 197.200 C 120.990 197.200,121.084 197.565,120.998 198.011 C 120.912 198.457,121.012 198.716,121.221 198.587 C 121.429 198.458,121.600 198.644,121.600 199.000 C 121.600 199.387,121.415 199.533,121.138 199.362 C 120.822 199.166,120.787 199.253,121.028 199.638 C 121.221 199.947,121.384 200.455,121.389 200.766 C 121.395 201.077,121.650 201.415,121.956 201.517 C 122.344 201.648,122.408 201.538,122.167 201.152 C 121.695 200.396,121.604 199.600,121.989 199.600 C 122.472 199.600,122.720 201.442,122.331 202.138 C 122.093 202.562,122.206 202.880,122.693 203.164 C 123.082 203.391,123.243 203.581,123.051 203.588 C 122.859 203.595,122.949 203.905,123.251 204.277 C 123.706 204.837,123.707 204.897,123.257 204.627 C 122.352 204.082,123.126 206.073,124.200 207.053 C 124.714 207.522,124.993 208.062,124.819 208.253 C 124.424 208.688,125.452 211.200,126.025 211.200 C 126.257 211.200,126.317 211.411,126.158 211.668 C 125.956 211.995,126.100 212.048,126.634 211.844 C 127.222 211.621,127.291 211.663,126.931 212.025 C 126.364 212.597,126.698 213.688,127.342 213.367 C 127.594 213.242,127.435 213.468,126.988 213.870 C 125.631 215.091,124.384 217.823,124.932 218.375 C 125.290 218.737,125.245 218.788,124.736 218.595 C 124.155 218.374,123.230 219.777,123.575 220.355 C 123.627 220.441,123.428 220.663,123.134 220.849 C 122.735 221.102,122.726 221.189,123.100 221.194 C 123.375 221.197,123.597 221.515,123.594 221.900 C 123.589 222.498,123.531 222.513,123.200 222.000 C 122.760 221.320,122.720 221.383,122.635 222.873 C 122.601 223.463,122.233 224.322,121.816 224.782 C 121.192 225.472,121.152 225.705,121.588 226.109 C 121.962 226.456,122.039 226.461,121.852 226.128 C 121.706 225.868,121.770 225.542,121.993 225.404 C 122.219 225.265,122.400 225.520,122.400 225.976 C 122.400 226.554,122.132 226.809,121.500 226.832 C 121.005 226.849,120.825 226.954,121.100 227.065 C 121.375 227.176,121.600 227.631,121.600 228.076 C 121.600 228.631,121.412 228.813,121.000 228.655 C 120.670 228.529,120.400 228.599,120.400 228.813 C 120.400 229.026,120.602 229.200,120.849 229.200 C 121.141 229.200,121.106 229.432,120.749 229.863 C 120.162 230.571,119.984 233.200,120.524 233.200 C 120.702 233.200,120.753 233.353,120.638 233.539 C 120.522 233.726,120.395 234.986,120.354 236.339 C 120.295 238.303,119.600 240.129,119.600 238.320 C 119.600 237.973,119.461 237.987,119.100 238.370 C 118.700 238.794,118.700 238.937,119.100 239.083 C 119.442 239.209,119.600 240.258,119.600 242.400 C 119.600 244.123,119.756 245.593,119.946 245.667 C 120.137 245.740,120.379 247.189,120.485 248.886 C 120.591 250.583,120.570 251.905,120.439 251.824 C 120.308 251.743,120.200 252.176,120.200 252.787 C 120.200 253.517,120.373 253.832,120.704 253.705 C 121.260 253.492,121.212 254.622,120.627 255.562 C 120.399 255.927,120.424 256.033,120.696 255.864 C 120.927 255.721,121.225 255.888,121.358 256.235 C 121.734 257.215,121.645 257.675,121.138 257.362 C 120.859 257.189,120.785 257.252,120.951 257.521 C 121.102 257.765,121.468 257.872,121.764 257.759 C 122.408 257.511,122.832 259.641,122.321 260.555 C 122.096 260.957,122.218 261.299,122.693 261.600 C 123.173 261.903,123.246 262.112,122.921 262.250 C 122.340 262.496,122.941 264.131,124.095 265.445 C 124.503 265.910,124.807 266.450,124.771 266.645 C 124.638 267.365,124.807 268.126,125.048 267.886 C 125.496 267.437,126.544 268.866,126.597 269.999 C 126.657 271.278,127.734 273.074,129.074 274.129 C 129.583 274.530,130.000 275.162,130.000 275.533 C 130.000 275.904,130.347 276.424,130.770 276.689 C 131.194 276.953,131.603 277.581,131.680 278.085 C 131.756 278.588,132.022 278.961,132.271 278.913 C 132.520 278.865,132.966 279.124,133.262 279.490 C 133.717 280.051,133.713 280.101,133.238 279.815 C 132.857 279.585,132.768 279.625,132.962 279.938 C 133.119 280.192,133.463 280.400,133.726 280.400 C 134.395 280.400,138.424 284.643,138.081 284.986 C 137.926 285.140,138.062 285.207,138.382 285.133 C 138.702 285.060,138.975 285.180,138.988 285.400 C 139.034 286.161,139.663 286.821,140.237 286.711 C 140.555 286.650,141.046 287.050,141.329 287.600 C 141.630 288.184,142.126 288.551,142.522 288.482 C 142.935 288.411,143.200 288.625,143.200 289.031 C 143.200 289.560,143.317 289.601,143.764 289.230 C 144.197 288.871,144.398 288.874,144.626 289.242 C 144.815 289.547,144.755 289.619,144.462 289.438 C 144.208 289.281,144.000 289.266,144.000 289.405 C 144.000 290.295,147.343 292.097,147.922 291.518 C 148.172 291.268,148.405 291.284,148.578 291.565 C 148.726 291.804,148.612 292.001,148.324 292.003 C 148.036 292.004,148.334 292.357,148.986 292.787 C 149.872 293.371,150.250 293.446,150.480 293.084 C 150.693 292.750,150.790 292.812,150.794 293.287 C 150.798 293.733,151.011 293.894,151.400 293.745 C 151.730 293.618,152.000 293.675,152.000 293.871 C 152.000 294.067,152.540 294.546,153.200 294.936 C 153.860 295.326,154.400 295.523,154.400 295.374 C 154.400 295.224,154.705 295.349,155.077 295.651 C 155.449 295.953,155.634 296.000,155.488 295.756 C 155.004 294.949,157.325 295.505,157.978 296.354 C 158.638 297.210,160.800 297.820,160.800 297.150 C 160.800 296.931,160.983 296.866,161.207 297.004 C 161.430 297.142,161.533 297.384,161.436 297.542 C 161.338 297.700,161.592 297.829,162.000 297.829 C 162.408 297.829,162.635 297.657,162.505 297.446 C 162.368 297.225,162.563 297.177,162.967 297.332 C 163.351 297.479,164.011 297.600,164.433 297.600 C 164.952 297.600,165.210 297.890,165.232 298.500 C 165.249 298.995,165.354 299.175,165.465 298.900 C 165.576 298.625,166.301 298.400,167.076 298.400 C 168.219 298.400,168.438 298.524,168.234 299.057 C 168.039 299.563,168.101 299.614,168.505 299.279 C 169.109 298.778,173.200 298.713,173.200 299.205 C 173.200 299.386,172.975 299.611,172.700 299.706 C 172.425 299.801,173.308 299.861,174.662 299.839 C 176.015 299.818,176.945 299.690,176.728 299.555 C 176.510 299.421,176.749 299.202,177.259 299.069 C 177.769 298.935,178.360 299.000,178.573 299.213 C 179.293 299.933,181.600 298.270,181.600 297.031 C 181.600 296.738,181.856 296.286,182.169 296.026 C 182.637 295.637,182.704 295.716,182.549 296.477 C 182.409 297.166,182.505 297.095,182.929 296.200 C 183.256 295.509,183.349 294.839,183.148 294.620 C 182.673 294.102,182.710 293.600,183.224 293.600 C 183.457 293.600,183.537 293.778,183.403 293.995 C 183.264 294.221,183.421 294.290,183.769 294.157 C 184.450 293.895,183.690 292.800,182.829 292.800 C 182.593 292.800,182.400 292.302,182.400 291.694 C 182.400 288.622,179.346 286.018,175.729 286.007 C 148.840 285.921,127.470 258.820,133.932 233.000 C 140.062 208.504,162.413 194.669,186.949 200.184 C 193.365 201.626,194.397 201.404,197.121 198.000 C 202.588 191.167,206.307 187.511,211.051 184.304 C 235.425 167.826,266.664 173.491,284.120 197.554 C 286.643 201.033,290.300 208.354,291.272 211.877 C 291.844 213.948,294.030 215.834,296.547 216.426 C 321.486 222.301,332.347 251.841,316.980 272.000 C 310.710 280.225,299.645 285.918,289.794 285.986 C 286.378 286.010,283.200 288.513,283.200 291.179 C 283.200 291.763,283.044 292.411,282.853 292.620 C 282.339 293.183,281.932 295.690,282.401 295.399 C 282.616 295.267,282.691 295.419,282.568 295.738 C 282.296 296.447,283.972 298.096,284.686 297.822 C 284.969 297.714,285.200 297.784,285.200 297.979 C 285.200 298.174,284.975 298.424,284.700 298.535 C 284.425 298.646,284.706 298.751,285.324 298.768 C 285.942 298.786,286.346 298.964,286.222 299.165 C 285.950 299.604,286.777 299.517,287.568 299.023 C 287.976 298.768,288.076 298.828,287.922 299.234 C 287.754 299.681,288.222 299.807,290.154 299.834 C 291.500 299.852,292.283 299.793,291.895 299.703 C 291.507 299.613,291.293 299.373,291.419 299.170 C 291.754 298.627,293.101 298.719,293.335 299.300 C 293.496 299.700,293.543 299.700,293.568 299.300 C 293.609 298.662,295.288 298.648,295.920 299.280 C 296.293 299.653,296.401 299.587,296.406 298.980 C 296.411 298.330,296.477 298.300,296.800 298.800 C 297.058 299.200,297.190 299.233,297.194 298.900 C 297.197 298.625,297.455 298.400,297.767 298.400 C 298.078 298.400,298.424 298.625,298.535 298.900 C 298.646 299.175,298.751 298.981,298.768 298.469 C 298.798 297.599,298.932 297.549,300.839 297.701 C 302.303 297.818,302.936 297.711,303.085 297.322 C 303.244 296.908,303.424 296.888,303.847 297.239 C 304.354 297.659,304.568 297.467,304.447 296.700 C 304.421 296.535,304.670 296.400,305.000 296.400 C 305.330 296.400,305.600 296.220,305.600 296.000 C 305.600 295.780,305.892 295.600,306.249 295.600 C 306.780 295.600,306.808 295.709,306.400 296.200 C 305.648 297.106,306.567 296.920,307.402 295.997 C 307.802 295.556,308.325 295.217,308.564 295.245 C 309.509 295.353,310.036 295.183,309.823 294.837 C 309.700 294.638,309.959 294.569,310.399 294.684 C 311.122 294.873,311.390 294.515,311.260 293.537 C 311.240 293.392,311.646 293.319,312.162 293.376 C 312.678 293.433,313.527 293.144,314.050 292.734 C 314.654 292.260,314.745 292.080,314.300 292.238 C 313.915 292.374,313.600 292.307,313.600 292.089 C 313.600 291.872,314.005 291.562,314.500 291.400 C 314.995 291.239,315.535 291.061,315.700 291.004 C 315.865 290.947,316.382 290.877,316.849 290.850 C 317.563 290.808,317.617 290.703,317.192 290.191 C 316.765 289.676,316.799 289.625,317.409 289.859 C 317.928 290.058,318.044 289.995,317.822 289.635 C 317.610 289.292,317.747 289.173,318.256 289.257 C 319.322 289.433,320.005 288.886,319.719 288.087 C 319.583 287.709,319.620 287.534,319.800 287.697 C 319.981 287.861,320.374 287.644,320.675 287.214 C 320.976 286.785,321.469 286.528,321.770 286.644 C 322.313 286.852,322.982 286.173,322.994 285.400 C 322.997 285.180,323.215 285.000,323.477 285.000 C 323.740 285.000,324.332 284.595,324.793 284.100 C 325.254 283.605,325.450 283.200,325.230 283.200 C 325.009 283.200,324.612 283.605,324.347 284.099 C 324.082 284.593,323.798 284.795,323.716 284.547 C 323.546 284.039,325.979 281.445,326.312 281.779 C 326.642 282.108,327.621 281.157,327.370 280.751 C 327.023 280.190,327.565 278.899,328.260 278.632 C 328.712 278.459,328.822 278.567,328.649 279.016 C 328.503 279.398,328.574 279.540,328.832 279.380 C 329.064 279.237,329.165 278.886,329.056 278.602 C 328.947 278.318,329.300 277.670,329.841 277.162 C 330.381 276.654,330.734 276.005,330.624 275.719 C 330.515 275.434,330.659 275.200,330.946 275.200 C 331.241 275.200,331.434 274.810,331.393 274.300 C 331.298 273.150,331.574 272.400,332.092 272.400 C 332.326 272.400,332.287 272.654,332.000 273.000 C 331.669 273.399,331.649 273.600,331.941 273.600 C 332.603 273.600,333.632 271.348,333.329 270.560 C 333.128 270.036,333.202 269.952,333.632 270.211 C 334.091 270.488,334.108 270.440,333.723 269.963 C 333.429 269.599,333.380 269.156,333.596 268.806 C 333.789 268.494,333.843 268.050,333.715 267.819 C 333.587 267.589,333.717 267.617,334.004 267.883 C 334.432 268.279,334.433 268.479,334.006 268.992 C 333.575 269.512,333.582 269.582,334.047 269.403 C 334.810 269.111,335.627 266.491,335.037 266.235 C 334.775 266.122,334.884 265.867,335.307 265.600 C 335.772 265.306,335.902 264.954,335.688 264.571 C 335.167 263.640,335.597 261.113,336.234 261.358 C 336.531 261.472,336.881 261.393,337.011 261.183 C 337.141 260.972,337.057 260.800,336.824 260.800 C 336.591 260.800,336.400 260.530,336.400 260.200 C 336.400 259.870,336.591 259.600,336.824 259.600 C 337.057 259.600,337.145 259.435,337.021 259.234 C 336.897 259.033,337.021 258.777,337.298 258.666 C 337.697 258.505,337.697 258.457,337.300 258.432 C 336.711 258.394,336.614 257.200,337.200 257.200 C 337.420 257.200,337.600 257.009,337.600 256.776 C 337.600 256.543,337.420 256.464,337.200 256.600 C 336.980 256.736,336.800 256.457,336.800 255.981 C 336.800 255.375,336.980 255.184,337.400 255.345 C 338.005 255.577,338.220 255.154,337.741 254.674 C 337.447 254.380,337.535 248.328,337.855 246.800 C 338.016 246.035,337.968 245.938,337.654 246.389 C 337.302 246.893,337.203 246.873,336.963 246.248 C 336.791 245.799,336.898 245.384,337.242 245.166 C 337.641 244.913,337.657 244.811,337.300 244.806 C 337.025 244.803,336.800 244.440,336.800 244.000 C 336.800 243.560,336.980 243.200,337.200 243.200 C 337.420 243.200,337.600 243.026,337.600 242.813 C 337.600 242.599,337.330 242.529,337.000 242.655 C 336.545 242.830,336.400 242.581,336.400 241.619 C 336.400 240.764,336.550 240.445,336.862 240.638 C 337.141 240.811,337.215 240.748,337.049 240.479 C 336.898 240.235,336.532 240.128,336.236 240.241 C 335.598 240.486,335.080 238.019,335.643 237.420 C 336.114 236.918,336.103 236.289,335.628 236.583 C 335.423 236.709,335.150 236.643,335.021 236.434 C 334.892 236.226,334.957 235.950,335.164 235.822 C 335.672 235.508,334.994 233.213,334.158 232.419 C 333.562 231.852,333.545 231.876,333.967 232.700 C 334.221 233.195,334.263 233.600,334.061 233.600 C 333.512 233.600,333.232 232.128,333.693 231.667 C 333.961 231.399,333.813 231.090,333.247 230.737 C 332.781 230.446,332.400 230.060,332.400 229.880 C 332.400 229.700,332.580 229.664,332.800 229.800 C 333.288 230.102,333.312 229.595,332.844 228.857 C 332.580 228.441,332.430 228.428,332.200 228.800 C 331.969 229.174,331.825 229.164,331.573 228.756 C 331.385 228.453,331.449 227.975,331.723 227.637 C 332.083 227.191,332.084 227.116,331.728 227.330 C 331.468 227.486,331.142 227.430,331.004 227.207 C 330.866 226.983,330.954 226.800,331.200 226.800 C 331.446 226.800,331.534 226.617,331.396 226.393 C 331.258 226.170,331.022 226.061,330.872 226.151 C 330.723 226.242,330.336 226.031,330.013 225.682 C 329.493 225.120,329.504 225.078,330.113 225.311 C 330.949 225.632,330.995 225.338,330.229 224.571 C 329.542 223.885,329.039 223.815,329.438 224.462 C 329.619 224.755,329.547 224.815,329.242 224.626 C 328.874 224.398,328.871 224.197,329.230 223.764 C 329.601 223.317,329.560 223.200,329.031 223.200 C 328.625 223.200,328.411 222.935,328.482 222.522 C 328.547 222.149,328.225 221.653,327.768 221.419 C 327.310 221.185,326.999 220.802,327.077 220.568 C 327.156 220.333,326.855 219.812,326.410 219.409 C 325.964 219.006,325.600 218.787,325.600 218.923 C 325.600 219.281,322.432 216.017,320.846 214.026 C 319.856 212.783,319.406 212.467,319.168 212.852 C 318.913 213.265,318.789 213.236,318.588 212.714 C 318.428 212.296,318.087 212.143,317.667 212.300 C 317.097 212.514,317.076 212.456,317.526 211.903 C 317.973 211.353,317.928 211.190,317.226 210.814 C 316.591 210.474,316.398 210.491,316.393 210.886 C 316.390 211.169,316.012 210.815,315.554 210.100 C 315.096 209.385,314.528 208.800,314.291 208.800 C 314.054 208.800,314.297 209.294,314.830 209.897 L 315.800 210.994 314.800 210.197 C 314.250 209.759,313.656 209.176,313.481 208.902 C 312.997 208.145,308.448 205.998,308.196 206.407 C 308.074 206.604,307.711 206.664,307.389 206.541 C 307.068 206.417,306.906 206.152,307.030 205.952 C 307.154 205.751,307.423 205.691,307.628 205.817 C 307.832 205.944,308.000 205.937,308.000 205.803 C 308.000 205.417,305.203 204.351,304.816 204.590 C 304.624 204.709,303.963 204.614,303.347 204.380 C 302.601 204.096,302.389 203.854,302.714 203.653 C 303.083 203.425,303.048 203.166,302.570 202.576 C 302.224 202.149,302.047 202.013,302.177 202.272 C 302.307 202.532,302.226 202.860,301.998 203.001 C 301.740 203.161,301.618 202.802,301.675 202.052 C 301.731 201.319,301.460 200.498,300.983 199.955 C 300.552 199.464,300.425 199.194,300.700 199.355 C 300.975 199.516,301.200 199.457,301.200 199.224 C 301.200 198.991,301.009 198.800,300.776 198.800 C 300.543 198.800,300.488 198.575,300.653 198.300 C 300.826 198.012,300.639 198.055,300.212 198.400 C 299.520 198.961,299.485 198.928,299.680 197.900 C 299.837 197.076,299.728 196.792,299.245 196.768 C 298.863 196.750,298.796 196.657,299.079 196.542 C 299.440 196.395,299.449 196.106,299.117 195.377 C 298.796 194.673,298.540 194.518,298.184 194.813 C 297.838 195.100,297.626 195.044,297.464 194.623 C 297.338 194.294,297.408 193.919,297.619 193.789 C 297.860 193.639,297.846 193.259,297.581 192.765 C 297.349 192.332,296.961 192.100,296.718 192.251 C 296.463 192.408,296.389 192.342,296.542 192.094 C 296.688 191.858,296.536 191.393,296.204 191.061 C 295.872 190.729,295.600 190.299,295.600 190.105 C 295.600 189.911,295.330 189.404,294.999 188.976 C 294.407 188.212,294.402 188.212,294.667 189.000 C 294.934 189.796,294.931 189.796,294.043 189.016 C 293.522 188.557,293.229 187.934,293.338 187.516 C 293.441 187.123,293.334 186.683,293.101 186.539 C 292.851 186.384,292.794 186.467,292.962 186.738 C 293.119 186.992,293.057 187.200,292.824 187.200 C 292.591 187.200,292.400 186.919,292.400 186.576 C 292.400 186.233,292.256 186.042,292.080 186.151 C 291.904 186.259,291.515 185.955,291.216 185.474 C 290.701 184.647,290.712 184.632,291.431 185.200 C 292.163 185.778,292.168 185.764,291.556 184.800 C 291.206 184.250,290.063 183.146,289.014 182.346 C 287.966 181.546,286.454 180.026,285.654 178.968 C 284.854 177.910,284.020 177.052,283.800 177.062 C 283.580 177.072,283.162 176.792,282.870 176.440 C 282.579 176.088,282.466 176.043,282.619 176.340 C 282.843 176.775,282.732 176.792,282.048 176.426 C 281.582 176.176,281.200 175.788,281.200 175.562 C 281.200 175.337,281.425 175.288,281.700 175.453 C 282.081 175.682,282.077 175.602,281.685 175.118 C 281.372 174.732,280.838 174.570,280.323 174.704 C 279.744 174.856,279.566 174.779,279.761 174.463 C 279.918 174.208,279.846 174.000,279.600 174.000 C 279.354 174.000,279.264 173.820,279.400 173.600 C 279.536 173.380,279.308 173.200,278.893 173.200 C 278.479 173.200,277.712 172.745,277.189 172.188 C 276.666 171.632,276.011 171.264,275.732 171.371 C 275.453 171.478,275.102 171.365,274.951 171.121 C 274.785 170.852,274.859 170.789,275.138 170.962 C 275.415 171.133,275.600 170.987,275.600 170.600 C 275.600 170.244,275.419 170.065,275.197 170.202 C 274.976 170.339,274.679 170.151,274.539 169.785 C 274.393 169.405,274.523 168.967,274.842 168.766 C 275.241 168.513,275.257 168.411,274.900 168.406 C 274.610 168.403,274.400 167.885,274.400 167.176 C 274.400 166.463,274.567 166.056,274.800 166.200 C 275.020 166.336,275.200 166.159,275.200 165.806 C 275.200 165.420,274.925 165.212,274.508 165.282 C 273.670 165.425,273.092 162.381,273.665 160.845 C 273.862 160.319,273.927 159.794,273.811 159.678 C 273.695 159.562,273.597 159.722,273.594 160.033 C 273.589 160.506,273.526 160.503,273.215 160.011 C 272.969 159.622,273.005 159.317,273.321 159.117 C 273.674 158.892,273.655 158.811,273.251 158.806 C 272.808 158.801,272.799 158.684,273.200 158.200 C 273.612 157.703,273.569 157.599,272.949 157.594 C 272.319 157.589,272.295 157.526,272.800 157.200 C 273.200 156.942,273.233 156.810,272.900 156.806 C 272.625 156.803,272.400 156.609,272.400 156.376 C 272.400 156.143,272.580 156.064,272.800 156.200 C 273.020 156.336,273.200 156.257,273.200 156.024 C 273.200 155.791,272.826 155.600,272.370 155.600 C 271.637 155.600,271.552 155.390,271.649 153.813 C 271.710 152.830,271.605 151.885,271.416 151.713 C 271.226 151.541,271.201 151.625,271.359 151.900 C 271.518 152.175,271.457 152.400,271.224 152.400 C 270.687 152.400,270.671 151.727,271.200 151.400 C 271.805 151.026,271.679 150.400,271.000 150.400 C 270.670 150.400,270.400 150.220,270.400 150.000 C 270.400 149.780,270.563 149.600,270.763 149.600 C 270.962 149.600,271.030 149.236,270.913 148.791 C 270.713 148.022,270.673 148.017,270.123 148.691 C 269.599 149.332,269.563 149.256,269.747 147.900 C 269.864 147.035,269.781 146.400,269.551 146.400 C 269.332 146.400,269.264 146.220,269.400 146.000 C 269.536 145.780,269.462 145.600,269.236 145.600 C 269.010 145.600,268.932 145.323,269.062 144.984 C 269.192 144.645,269.141 144.396,268.949 144.431 C 268.078 144.590,267.600 144.349,267.600 143.751 C 267.600 143.220,267.709 143.192,268.200 143.600 C 268.632 143.959,268.800 143.969,268.800 143.636 C 268.800 143.383,268.531 143.072,268.202 142.946 C 267.874 142.819,267.723 142.524,267.868 142.290 C 268.040 142.012,267.865 141.965,267.366 142.156 C 266.784 142.377,266.711 142.335,267.063 141.981 C 267.703 141.336,266.794 139.239,265.598 138.599 C 265.038 138.299,264.859 138.011,265.128 137.844 C 265.369 137.696,265.464 137.311,265.341 136.989 C 265.217 136.668,264.955 136.504,264.758 136.626 C 264.561 136.748,264.400 136.520,264.400 136.120 C 264.400 135.719,263.981 134.940,263.469 134.388 C 262.957 133.836,262.627 133.118,262.734 132.792 C 262.906 132.274,262.837 132.275,262.188 132.800 C 261.780 133.130,261.574 133.187,261.730 132.928 C 261.886 132.668,261.818 132.335,261.579 132.187 C 261.341 132.040,261.240 131.673,261.355 131.372 C 261.471 131.072,261.365 130.702,261.121 130.551 C 260.852 130.385,260.789 130.459,260.962 130.738 C 261.119 130.992,261.134 131.200,260.995 131.200 C 260.540 131.200,259.600 130.069,259.606 129.529 C 259.611 129.138,259.714 129.157,260.000 129.600 C 260.233 129.961,260.390 130.010,260.394 129.724 C 260.400 129.225,259.660 128.617,259.033 128.606 C 258.832 128.603,258.583 128.350,258.481 128.044 C 258.369 127.707,258.474 127.598,258.748 127.768 C 258.997 127.922,259.200 127.867,259.200 127.647 C 259.200 127.427,259.020 127.136,258.800 127.000 C 258.580 126.864,258.400 126.943,258.400 127.176 C 258.400 127.409,258.220 127.600,258.000 127.600 C 257.780 127.600,257.600 127.407,257.600 127.171 C 257.600 126.936,257.330 126.473,257.000 126.143 C 256.670 125.813,256.400 125.341,256.400 125.095 C 256.400 124.849,256.680 124.996,257.022 125.424 C 257.616 126.165,257.624 126.158,257.194 125.274 C 256.847 124.559,256.622 124.450,256.208 124.794 C 255.811 125.123,255.594 125.113,255.374 124.758 C 255.173 124.433,255.260 124.371,255.638 124.568 C 255.947 124.728,255.851 124.576,255.424 124.230 C 254.855 123.768,254.801 123.596,255.224 123.584 C 255.541 123.576,255.196 123.306,254.457 122.985 C 253.608 122.617,253.191 122.200,253.324 121.853 C 253.445 121.538,252.755 120.555,251.710 119.552 C 250.706 118.588,250.011 118.025,250.166 118.300 C 250.321 118.575,250.261 118.800,250.034 118.800 C 249.807 118.800,249.341 118.260,249.000 117.600 C 248.424 116.487,247.961 116.199,247.032 116.375 C 246.830 116.414,246.887 116.178,247.158 115.850 C 247.565 115.361,247.488 115.176,246.726 114.806 C 245.842 114.376,245.835 114.384,246.576 114.978 C 247.004 115.320,247.184 115.597,246.976 115.594 C 246.263 115.582,245.456 114.862,245.350 114.143 C 245.239 113.386,244.002 112.264,243.658 112.608 C 243.548 112.718,243.805 113.086,244.229 113.426 C 244.966 114.017,244.961 114.025,244.100 113.608 C 243.605 113.368,243.200 112.920,243.200 112.613 C 243.200 111.988,241.036 110.297,240.685 110.648 C 240.147 111.186,238.751 110.341,239.228 109.766 C 239.605 109.312,239.548 109.200,238.938 109.200 C 238.520 109.200,237.870 108.840,237.493 108.400 C 237.116 107.960,236.581 107.603,236.304 107.606 C 235.963 107.610,235.994 107.737,236.400 108.000 C 236.913 108.331,236.898 108.389,236.300 108.394 C 235.673 108.399,235.524 108.165,235.634 107.345 C 235.705 106.813,234.613 106.456,234.327 106.918 C 234.106 107.276,233.906 107.256,233.517 106.838 C 233.131 106.423,233.126 106.354,233.500 106.565 C 233.775 106.720,234.000 106.674,234.000 106.463 C 234.000 106.003,231.769 105.165,231.434 105.499 C 231.305 105.628,231.200 105.423,231.200 105.043 C 231.200 104.653,231.013 104.468,230.770 104.618 C 230.534 104.764,229.949 104.539,229.470 104.118 C 228.104 102.916,226.581 102.379,226.049 102.911 C 225.717 103.243,225.600 103.235,225.600 102.880 C 225.600 102.611,225.061 102.400,224.376 102.400 C 223.700 102.400,223.258 102.229,223.389 102.017 C 223.519 101.807,223.845 101.688,224.113 101.752 C 224.381 101.816,224.470 101.795,224.310 101.704 C 224.150 101.614,223.901 101.569,223.755 101.604 C 223.609 101.639,223.337 101.428,223.151 101.134 C 222.898 100.735,222.811 100.726,222.806 101.100 C 222.803 101.375,222.530 101.600,222.200 101.600 C 221.870 101.600,221.600 101.390,221.600 101.133 C 221.600 100.877,221.486 100.780,221.347 100.919 C 221.208 101.058,220.713 100.966,220.247 100.714 C 219.781 100.462,218.815 100.294,218.100 100.341 C 217.385 100.387,216.800 100.250,216.800 100.035 C 216.800 99.821,217.192 99.721,217.671 99.814 C 218.202 99.916,218.397 99.838,218.171 99.614 C 217.629 99.076,214.400 98.416,214.400 98.843 C 214.400 99.039,214.130 99.200,213.800 99.200 C 213.470 99.200,213.200 98.998,213.200 98.751 C 213.200 98.459,212.965 98.493,212.525 98.851 C 211.938 99.329,211.882 99.314,212.099 98.735 C 212.307 98.180,212.172 98.119,211.274 98.367 C 209.436 98.873,206.728 98.411,206.504 97.553 C 206.395 97.139,206.137 96.800,205.930 96.800 C 205.722 96.800,205.664 96.980,205.800 97.200 C 205.956 97.453,204.979 97.600,203.147 97.600 C 200.511 97.600,200.318 97.546,201.024 97.013 C 201.769 96.449,201.756 96.425,200.724 96.413 C 200.132 96.406,199.536 96.580,199.400 96.800 C 199.264 97.020,198.184 97.200,197.000 97.200 C 195.816 97.200,194.736 97.020,194.600 96.800 C 194.181 96.122,192.389 96.307,192.655 97.000 M183.862 97.500 C 183.760 97.665,184.272 97.800,185.000 97.800 C 185.728 97.800,186.240 97.665,186.138 97.500 C 186.036 97.335,185.524 97.200,185.000 97.200 C 184.476 97.200,183.964 97.335,183.862 97.500 M207.462 97.500 C 207.360 97.665,207.872 97.800,208.600 97.800 C 209.328 97.800,209.840 97.665,209.738 97.500 C 209.636 97.335,209.124 97.200,208.600 97.200 C 208.076 97.200,207.564 97.335,207.462 97.500 M84.695 104.712 C 84.307 104.794,84.064 104.982,84.153 105.130 C 84.243 105.279,84.031 105.664,83.682 105.987 C 83.120 106.507,83.078 106.496,83.311 105.887 C 83.681 104.923,83.099 105.030,82.467 106.042 C 82.031 106.739,82.032 106.840,82.470 106.627 C 82.762 106.486,82.670 106.602,82.266 106.885 C 80.016 108.464,78.853 110.139,79.661 110.638 C 79.915 110.795,80.018 110.752,79.888 110.543 C 79.759 110.333,79.818 109.900,80.020 109.581 C 80.306 109.129,80.389 109.202,80.394 109.913 C 80.398 110.489,80.068 110.959,79.500 111.188 C 79.005 111.387,78.825 111.561,79.100 111.575 C 79.375 111.589,79.600 112.104,79.600 112.720 C 79.600 113.336,79.746 114.011,79.924 114.220 C 80.368 114.740,81.226 116.800,81.000 116.800 C 80.899 116.800,80.440 116.063,79.980 115.161 C 79.520 114.260,79.042 113.625,78.917 113.750 C 78.465 114.201,80.991 117.400,81.800 117.400 C 82.325 117.400,82.644 117.709,82.728 118.300 C 82.843 119.112,83.053 119.273,83.855 119.166 C 83.996 119.147,84.263 119.372,84.449 119.666 C 84.666 120.007,84.790 120.033,84.794 119.737 C 84.797 119.473,85.142 119.364,85.600 119.484 C 86.321 119.673,86.569 120.077,86.455 120.876 C 86.401 121.255,87.912 121.702,88.345 121.434 C 88.762 121.176,90.488 122.579,90.158 122.908 C 90.034 123.033,90.296 123.330,90.741 123.569 C 91.248 123.840,91.640 123.859,91.789 123.619 C 91.919 123.408,92.294 123.338,92.623 123.464 C 93.044 123.626,93.100 123.838,92.813 124.184 C 92.518 124.540,92.673 124.796,93.377 125.117 C 94.106 125.449,94.395 125.440,94.542 125.079 C 94.657 124.796,94.750 124.864,94.768 125.245 C 94.790 125.693,95.112 125.856,95.822 125.778 C 96.605 125.692,96.746 125.783,96.425 126.170 C 96.114 126.545,96.269 126.794,97.029 127.140 C 97.622 127.411,97.946 127.437,97.802 127.203 C 97.340 126.456,97.880 126.792,99.317 128.148 C 100.300 129.075,101.062 129.461,101.755 129.385 C 102.313 129.324,102.995 129.560,103.282 129.914 C 103.672 130.396,103.676 130.479,103.300 130.253 C 103.025 130.088,102.800 130.106,102.800 130.293 C 102.800 130.480,103.426 130.917,104.191 131.264 C 104.956 131.611,105.495 131.754,105.389 131.582 C 105.283 131.411,105.502 131.315,105.876 131.370 C 106.251 131.425,106.635 131.704,106.730 131.991 C 106.842 132.327,106.708 132.410,106.352 132.226 C 106.048 132.069,106.149 132.224,106.576 132.570 C 107.478 133.301,108.174 133.405,107.768 132.748 C 107.597 132.471,107.704 132.374,108.044 132.498 C 108.350 132.609,108.555 132.902,108.500 133.150 C 108.445 133.398,108.580 133.600,108.800 133.600 C 109.020 133.600,109.200 133.420,109.200 133.200 C 109.200 132.671,110.694 132.682,110.871 133.213 C 110.964 133.491,111.435 133.477,112.317 133.169 C 113.317 132.820,113.525 132.591,113.199 132.199 C 112.879 131.813,112.938 131.699,113.436 131.742 C 113.830 131.776,114.423 131.185,114.895 130.289 C 115.504 129.132,115.812 128.878,116.208 129.207 C 116.608 129.538,116.839 129.295,117.221 128.137 C 117.588 127.025,117.597 126.599,117.258 126.486 C 116.704 126.301,116.638 123.600,117.187 123.600 C 117.401 123.600,117.473 123.336,117.350 123.013 C 117.226 122.690,117.006 122.441,116.862 122.460 C 116.118 122.559,115.600 122.352,115.600 121.957 C 115.600 121.701,115.894 121.627,116.300 121.781 C 116.685 121.928,116.146 121.252,115.103 120.279 C 113.754 119.020,112.922 118.541,112.221 118.617 C 111.670 118.678,111.008 118.433,110.718 118.063 C 110.245 117.458,110.267 117.453,110.965 118.000 C 111.645 118.533,111.708 118.533,111.532 118.000 C 111.423 117.670,110.988 117.400,110.567 117.400 C 110.145 117.400,109.559 117.076,109.264 116.681 C 108.862 116.142,108.596 116.071,108.200 116.400 C 107.834 116.704,107.591 116.710,107.412 116.419 C 107.269 116.189,107.388 115.985,107.676 115.967 C 107.964 115.949,107.648 115.692,106.973 115.396 C 106.298 115.099,105.511 114.574,105.224 114.228 C 104.937 113.883,104.353 113.600,103.927 113.600 C 103.501 113.600,103.252 113.439,103.374 113.242 C 103.714 112.692,102.557 112.403,102.049 112.911 C 101.717 113.243,101.600 113.229,101.600 112.856 C 101.600 112.579,101.432 112.456,101.228 112.583 C 101.023 112.709,100.725 112.602,100.566 112.345 C 100.385 112.052,100.450 111.984,100.738 112.162 C 100.992 112.319,101.200 112.295,101.200 112.110 C 101.200 111.561,99.074 110.543,98.090 110.620 C 97.590 110.659,97.067 110.508,96.928 110.284 C 96.784 110.051,96.874 109.998,97.138 110.162 C 97.785 110.561,97.715 110.058,97.029 109.371 C 96.374 108.717,95.832 108.604,96.200 109.200 C 96.336 109.420,96.300 109.600,96.120 109.600 C 95.940 109.600,95.577 109.255,95.313 108.833 C 94.999 108.329,94.554 108.139,94.017 108.280 C 93.384 108.445,93.200 108.302,93.200 107.647 C 93.200 107.181,93.009 106.800,92.776 106.800 C 92.543 106.800,92.467 107.025,92.607 107.300 C 92.747 107.575,92.530 107.440,92.125 107.000 C 90.784 105.542,89.942 104.982,90.234 105.743 C 90.374 106.109,90.289 106.400,90.043 106.400 C 89.645 106.400,89.439 105.876,89.543 105.129 C 89.563 104.981,88.749 104.950,87.734 105.062 C 86.718 105.174,85.778 105.107,85.644 104.914 C 85.510 104.722,85.083 104.631,84.695 104.712 M304.800 105.000 C 304.791 105.602,304.703 105.666,304.444 105.257 C 304.224 104.911,303.784 104.815,303.229 104.991 C 302.556 105.204,302.459 105.389,302.802 105.802 C 303.156 106.229,303.059 106.296,302.323 106.134 C 301.569 105.968,301.510 106.013,302.000 106.383 C 302.509 106.767,302.479 106.826,301.800 106.772 C 300.455 106.664,299.943 106.783,300.170 107.151 C 300.289 107.345,299.850 107.610,299.194 107.741 C 298.537 107.873,298.000 108.175,298.000 108.414 C 298.000 108.652,298.208 108.719,298.462 108.562 C 298.755 108.381,298.815 108.453,298.626 108.758 C 298.426 109.082,298.173 109.110,297.851 108.842 C 297.388 108.458,296.297 108.828,296.366 109.345 C 296.476 110.165,296.327 110.399,295.700 110.394 C 295.102 110.389,295.087 110.331,295.600 110.000 C 295.973 109.759,296.017 109.610,295.716 109.606 C 295.450 109.603,294.752 110.095,294.166 110.700 C 293.579 111.305,293.222 111.575,293.373 111.300 C 293.749 110.614,293.272 110.671,292.543 111.400 C 292.122 111.821,292.091 112.000,292.438 112.000 C 293.087 112.000,292.549 112.531,291.787 112.643 C 291.455 112.692,291.298 112.526,291.429 112.265 C 291.556 112.009,291.303 112.205,290.866 112.700 C 290.068 113.605,289.339 113.946,289.800 113.200 C 290.168 112.604,289.626 112.717,288.971 113.371 C 288.285 114.058,288.215 114.561,288.862 114.162 C 289.134 113.993,289.216 114.051,289.060 114.303 C 288.915 114.537,288.347 114.680,287.798 114.620 C 287.169 114.550,286.800 114.711,286.800 115.055 C 286.800 115.355,286.665 115.579,286.500 115.553 C 285.499 115.395,284.821 115.703,284.593 116.421 C 284.412 116.992,284.190 117.124,283.864 116.854 C 283.545 116.589,282.871 116.823,281.746 117.590 C 280.838 118.209,279.704 118.840,279.226 118.992 C 278.524 119.215,278.449 119.377,278.836 119.843 C 279.228 120.316,279.185 120.369,278.591 120.141 C 278.103 119.954,277.960 120.012,278.151 120.320 C 278.324 120.601,278.037 120.876,277.406 121.034 C 276.577 121.242,276.469 121.401,276.846 121.855 C 277.226 122.313,277.178 122.366,276.591 122.141 C 276.127 121.963,275.963 122.016,276.132 122.290 C 276.277 122.524,276.126 122.819,275.798 122.946 C 275.356 123.115,275.211 123.777,275.241 125.487 C 275.277 127.513,275.321 127.635,275.596 126.472 C 275.769 125.742,275.825 124.817,275.720 124.417 C 275.616 124.017,275.749 123.555,276.017 123.389 C 276.386 123.161,276.462 123.678,276.328 125.521 C 276.232 126.859,276.268 127.882,276.410 127.794 C 276.551 127.707,276.667 127.889,276.667 128.200 C 276.667 128.511,276.472 128.654,276.233 128.518 C 275.995 128.382,276.205 128.717,276.700 129.261 C 277.195 129.806,277.600 130.454,277.600 130.702 C 277.600 130.950,277.811 131.283,278.068 131.442 C 278.390 131.641,278.450 131.506,278.259 131.009 C 278.025 130.399,278.076 130.365,278.591 130.792 C 278.926 131.070,279.200 131.535,279.200 131.825 C 279.200 132.115,279.378 132.463,279.595 132.597 C 279.822 132.737,279.889 132.577,279.753 132.221 C 279.622 131.879,279.714 131.600,279.957 131.600 C 280.351 131.600,280.557 132.114,280.462 132.857 C 280.443 132.998,280.782 133.207,281.214 133.320 C 281.646 133.433,282.000 133.362,282.000 133.163 C 282.000 132.608,283.906 132.731,284.135 133.300 C 284.246 133.575,284.354 133.440,284.375 133.000 C 284.404 132.367,284.487 132.319,284.772 132.768 C 285.184 133.420,287.050 132.455,287.464 131.377 C 287.586 131.060,287.857 130.800,288.066 130.800 C 288.276 130.800,288.335 130.981,288.198 131.203 C 288.054 131.437,288.378 131.411,288.971 131.140 C 289.705 130.806,289.881 130.538,289.593 130.192 C 289.299 129.837,289.432 129.726,290.096 129.774 C 291.510 129.875,293.665 128.760,293.181 128.177 C 292.901 127.840,292.961 127.624,293.377 127.464 C 293.706 127.338,294.081 127.408,294.211 127.619 C 294.360 127.859,294.752 127.840,295.259 127.569 C 295.704 127.330,295.966 127.033,295.842 126.908 C 295.512 126.579,297.238 125.176,297.655 125.434 C 298.125 125.724,299.660 125.221,299.432 124.852 C 299.139 124.378,299.734 123.729,300.750 123.411 C 301.406 123.206,301.615 123.252,301.425 123.560 C 301.230 123.876,301.449 123.869,302.175 123.539 C 302.739 123.282,303.200 122.910,303.200 122.712 C 303.200 122.515,303.425 122.488,303.700 122.653 C 303.990 122.827,303.949 122.645,303.603 122.219 C 303.053 121.542,303.074 121.506,303.869 121.759 C 304.385 121.922,304.852 121.840,305.028 121.554 C 305.227 121.232,305.153 121.182,304.800 121.400 C 304.440 121.622,304.373 121.568,304.583 121.227 C 304.790 120.893,305.022 120.862,305.294 121.134 C 305.917 121.757,307.723 120.830,307.174 120.169 C 306.851 119.779,306.966 119.710,307.677 119.866 C 308.431 120.032,308.490 119.987,308.000 119.617 C 307.491 119.233,307.521 119.174,308.200 119.228 C 309.716 119.349,310.021 119.197,310.458 118.100 C 310.717 117.448,310.973 117.211,311.086 117.516 C 311.222 117.883,311.496 117.782,312.031 117.165 C 312.445 116.687,312.669 116.112,312.530 115.887 C 312.390 115.660,312.471 115.597,312.711 115.745 C 313.326 116.125,313.782 115.222,313.245 114.685 C 312.645 114.085,312.680 113.468,313.300 113.706 C 313.625 113.831,313.800 113.514,313.800 112.800 C 313.800 112.176,313.613 111.774,313.367 111.868 C 313.128 111.960,312.933 111.757,312.933 111.417 C 312.933 111.078,313.111 110.800,313.329 110.800 C 313.546 110.800,313.381 110.409,312.962 109.931 C 312.543 109.453,312.425 109.194,312.700 109.355 C 312.975 109.516,313.200 109.457,313.200 109.224 C 313.200 108.991,313.020 108.800,312.800 108.800 C 312.580 108.800,312.445 108.642,312.500 108.448 C 312.676 107.829,310.498 106.062,310.077 106.483 C 309.828 106.732,309.594 106.715,309.422 106.435 C 309.274 106.196,309.378 106.000,309.653 106.000 C 309.928 106.000,309.804 105.736,309.376 105.413 C 308.478 104.733,307.840 104.618,308.200 105.200 C 308.336 105.420,308.257 105.600,308.024 105.600 C 307.791 105.600,307.600 105.445,307.600 105.255 C 307.600 105.066,307.131 105.001,306.557 105.110 C 305.917 105.233,305.379 105.095,305.164 104.755 C 304.893 104.328,304.809 104.385,304.800 105.000 M209.200 111.738 C 234.878 117.455,254.597 136.871,260.016 161.772 C 260.897 165.821,261.068 165.666,256.908 164.589 C 232.700 158.319,205.985 167.486,189.623 187.676 C 189.501 187.827,187.690 187.693,185.600 187.378 C 169.350 184.929,152.402 189.626,140.065 199.997 C 138.451 201.354,137.075 202.404,137.007 202.332 C 135.891 201.137,132.990 191.344,132.132 185.875 C 126.346 148.976,152.157 115.424,190.000 110.652 C 194.103 110.135,204.687 110.733,209.200 111.738 M252.022 120.263 C 252.932 121.230,253.082 121.514,252.463 121.100 C 251.623 120.538,250.139 118.800,250.499 118.800 C 250.578 118.800,251.263 119.458,252.022 120.263 M266.800 140.905 C 266.800 141.099,266.530 140.987,266.200 140.657 C 265.870 140.327,265.606 139.819,265.613 139.529 C 265.627 138.945,266.800 140.305,266.800 140.905 M119.467 157.467 C 119.102 157.831,119.128 159.200,119.500 159.200 C 119.665 159.200,119.800 158.750,119.800 158.200 C 119.800 157.650,119.785 157.200,119.767 157.200 C 119.748 157.200,119.613 157.320,119.467 157.467 M274.200 163.400 C 274.200 164.128,274.335 164.640,274.500 164.538 C 274.665 164.436,274.800 163.924,274.800 163.400 C 274.800 162.876,274.665 162.364,274.500 162.262 C 274.335 162.160,274.200 162.672,274.200 163.400 M97.945 168.188 C 97.842 168.291,90.716 168.393,82.110 168.414 C 67.639 168.449,66.401 168.506,65.632 169.173 C 64.722 169.961,64.501 170.619,65.300 170.159 C 65.590 169.992,65.660 170.024,65.467 170.236 C 65.283 170.436,64.968 170.623,64.767 170.650 C 64.565 170.678,64.220 170.722,64.000 170.750 C 63.780 170.778,63.600 171.171,63.600 171.624 C 63.600 172.077,63.439 172.348,63.242 172.226 C 63.045 172.104,62.781 172.274,62.654 172.602 C 62.528 172.931,62.565 173.200,62.736 173.200 C 62.906 173.200,63.040 174.100,63.032 175.200 C 63.024 176.300,62.889 177.200,62.732 177.200 C 62.324 177.200,62.681 178.775,63.242 179.450 C 63.502 179.763,63.806 179.927,63.918 179.815 C 64.031 179.703,64.500 180.119,64.961 180.741 C 65.454 181.405,66.048 181.789,66.400 181.671 C 66.933 181.492,66.933 181.552,66.400 182.212 C 66.070 182.620,66.010 182.828,66.266 182.674 C 66.522 182.521,66.823 182.621,66.934 182.898 C 67.095 183.297,67.143 183.297,67.168 182.900 C 67.214 182.183,68.400 182.280,68.400 183.000 C 68.400 183.330,68.670 183.600,69.000 183.600 C 69.330 183.600,69.600 183.420,69.600 183.200 C 69.600 182.941,74.400 182.800,83.200 182.800 C 92.000 182.800,96.800 182.941,96.800 183.200 C 96.800 183.420,96.980 183.600,97.200 183.600 C 97.420 183.600,97.555 183.399,97.500 183.153 C 97.445 182.907,97.716 182.653,98.102 182.588 C 98.523 182.517,98.697 182.644,98.536 182.903 C 98.364 183.182,98.517 183.241,98.967 183.068 C 99.351 182.921,99.735 182.800,99.820 182.800 C 99.905 182.800,99.880 182.553,99.764 182.252 C 99.649 181.950,99.844 181.592,100.198 181.456 C 100.568 181.314,100.739 181.375,100.600 181.600 C 99.980 182.603,101.525 181.398,102.498 180.119 C 103.291 179.077,103.481 178.538,103.181 178.177 C 102.914 177.856,102.907 177.628,103.161 177.539 C 103.896 177.280,103.823 173.153,103.074 172.605 C 102.360 172.082,102.121 171.380,102.800 171.800 C 103.020 171.936,103.200 171.857,103.200 171.624 C 103.200 171.391,102.876 171.200,102.480 171.200 C 101.558 171.200,100.800 170.442,100.800 169.520 C 100.800 169.124,100.609 168.800,100.376 168.800 C 100.143 168.800,100.064 168.980,100.200 169.200 C 100.336 169.420,100.276 169.600,100.066 169.600 C 99.857 169.600,99.574 169.310,99.438 168.955 C 99.226 168.404,99.093 168.389,98.520 168.855 C 97.935 169.331,97.883 169.311,98.113 168.700 C 98.372 168.008,98.311 167.822,97.945 168.188 M309.700 168.305 C 298.814 168.379,294.400 168.538,294.400 168.854 C 294.400 169.170,294.252 169.175,293.887 168.872 C 293.397 168.465,292.294 168.808,292.366 169.345 C 292.483 170.218,292.327 170.458,291.779 170.247 C 291.438 170.116,291.256 170.167,291.375 170.359 C 291.629 170.770,290.651 171.683,290.260 171.400 C 290.113 171.294,290.161 171.407,290.365 171.652 C 290.814 172.188,290.468 173.289,289.952 172.970 C 289.751 172.846,289.693 172.532,289.823 172.272 C 289.953 172.013,289.770 172.158,289.416 172.595 C 289.035 173.066,288.941 173.447,289.186 173.529 C 289.717 173.706,289.729 174.800,289.200 174.800 C 288.980 174.800,288.800 175.171,288.800 175.624 C 288.800 176.077,288.980 176.336,289.200 176.200 C 289.420 176.064,289.600 176.334,289.600 176.800 C 289.600 177.339,289.432 177.543,289.138 177.362 C 288.859 177.189,288.785 177.252,288.951 177.521 C 289.102 177.765,289.490 177.864,289.813 177.740 C 290.350 177.534,290.655 178.526,290.431 179.750 C 290.321 180.351,291.723 181.638,292.262 181.432 C 292.544 181.323,292.898 181.435,293.049 181.679 C 293.215 181.948,293.141 182.011,292.862 181.838 C 292.608 181.681,292.400 181.743,292.400 181.976 C 292.400 182.209,292.670 182.400,293.000 182.400 C 293.330 182.400,293.600 182.559,293.600 182.753 C 293.600 183.263,295.730 183.607,296.180 183.169 C 296.712 182.653,323.080 182.683,323.400 183.200 C 323.791 183.833,324.510 183.665,324.255 183.000 C 324.129 182.670,324.184 182.400,324.379 182.400 C 324.574 182.400,324.824 182.625,324.935 182.900 C 325.096 183.300,325.143 183.300,325.168 182.900 C 325.186 182.625,325.455 182.400,325.767 182.400 C 326.078 182.400,326.409 182.265,326.501 182.100 C 326.593 181.935,326.614 182.025,326.547 182.300 C 326.354 183.091,326.956 182.882,327.533 181.958 C 327.969 181.261,327.968 181.163,327.530 181.388 C 326.966 181.677,327.818 180.953,329.090 180.063 C 329.767 179.590,329.836 179.146,329.678 176.308 C 329.543 173.880,329.616 173.163,329.977 173.386 C 330.240 173.548,330.358 173.933,330.240 174.240 C 330.122 174.548,330.199 174.800,330.413 174.800 C 331.179 174.800,330.778 173.294,329.709 172.158 C 329.109 171.521,328.614 170.874,328.609 170.720 C 328.604 170.566,328.339 170.206,328.019 169.920 C 327.512 169.465,327.512 169.496,328.019 170.165 C 328.530 170.837,328.527 170.906,328.000 170.734 C 327.670 170.626,327.342 170.146,327.272 169.669 C 327.202 169.191,326.977 168.778,326.772 168.750 C 326.058 168.654,325.797 168.586,325.400 168.394 C 325.180 168.287,318.115 168.247,309.700 168.305 M117.452 170.900 C 117.127 172.115,117.187 180.426,117.528 181.285 C 117.678 181.662,117.800 179.277,117.800 175.985 C 117.800 172.693,117.776 170.000,117.747 170.000 C 117.717 170.000,117.585 170.405,117.452 170.900 M126.400 210.243 C 126.400 211.024,126.101 210.936,125.605 210.009 C 125.259 209.364,125.294 209.261,125.791 209.452 C 126.126 209.580,126.400 209.936,126.400 210.243 M111.546 218.188 C 111.458 218.275,110.219 218.417,108.793 218.502 C 107.367 218.587,106.228 218.824,106.262 219.028 C 106.296 219.233,106.036 219.664,105.686 219.987 C 105.120 220.508,105.077 220.496,105.311 219.887 C 105.632 219.051,105.338 219.005,104.571 219.771 C 103.867 220.476,103.824 220.946,104.500 220.565 C 104.874 220.354,104.869 220.423,104.483 220.838 C 104.094 221.256,103.894 221.276,103.673 220.918 C 103.387 220.456,102.295 220.813,102.366 221.345 C 102.468 222.108,102.355 222.400,101.957 222.400 C 101.711 222.400,101.626 222.109,101.766 221.743 C 102.058 220.982,101.216 221.542,99.875 223.000 C 99.470 223.440,99.253 223.575,99.393 223.300 C 99.533 223.025,99.457 222.800,99.224 222.800 C 98.991 222.800,98.800 223.160,98.800 223.600 C 98.800 224.040,98.609 224.400,98.376 224.400 C 98.143 224.400,98.075 224.202,98.225 223.960 C 98.410 223.660,98.221 223.668,97.626 223.986 C 97.147 224.243,96.656 224.711,96.535 225.026 C 96.413 225.342,96.143 225.600,95.934 225.600 C 95.724 225.600,95.664 225.420,95.800 225.200 C 95.936 224.980,95.869 224.800,95.651 224.800 C 95.434 224.800,95.198 225.205,95.128 225.700 C 95.032 226.372,94.730 226.603,93.936 226.613 C 92.745 226.628,90.800 227.544,90.800 228.091 C 90.800 228.287,91.008 228.319,91.262 228.162 C 91.550 227.984,91.615 228.052,91.434 228.345 C 91.275 228.602,90.977 228.709,90.772 228.583 C 90.568 228.456,90.400 228.579,90.400 228.856 C 90.400 229.229,90.283 229.243,89.951 228.911 C 89.443 228.403,88.286 228.692,88.626 229.242 C 88.748 229.439,88.504 229.600,88.086 229.600 C 87.667 229.600,87.013 229.944,86.633 230.364 C 86.252 230.784,85.469 231.247,84.891 231.392 C 84.065 231.599,83.965 231.733,84.421 232.021 C 84.739 232.223,84.910 232.404,84.800 232.424 C 84.690 232.445,84.284 232.522,83.898 232.595 C 83.468 232.678,83.288 232.550,83.432 232.265 C 83.562 232.009,83.075 232.430,82.350 233.200 C 81.626 233.970,80.845 234.601,80.616 234.602 C 80.387 234.603,80.258 235.099,80.329 235.704 C 80.428 236.548,80.241 236.891,79.529 237.177 C 79.018 237.382,78.825 237.561,79.100 237.575 C 79.386 237.589,79.600 238.125,79.600 238.824 C 79.600 239.537,79.433 239.944,79.200 239.800 C 78.980 239.664,78.800 239.743,78.800 239.976 C 78.800 240.209,78.974 240.400,79.187 240.400 C 79.401 240.400,79.476 240.715,79.355 241.100 C 79.148 241.758,79.170 241.757,79.718 241.091 C 80.274 240.415,80.312 240.418,80.505 241.157 C 80.616 241.584,80.503 242.154,80.254 242.425 C 79.914 242.794,79.918 242.851,80.272 242.652 C 80.532 242.506,80.858 242.570,80.996 242.793 C 81.134 243.017,81.023 243.200,80.749 243.200 C 80.475 243.200,80.768 243.740,81.401 244.401 C 82.241 245.278,82.637 245.467,82.870 245.101 C 83.166 244.634,83.368 244.978,83.237 245.730 C 83.206 245.911,83.370 245.942,83.603 245.798 C 83.835 245.654,85.665 245.515,87.669 245.488 C 91.214 245.441,91.351 245.404,92.712 244.120 C 94.123 242.790,94.657 242.460,94.198 243.203 C 94.054 243.437,94.378 243.411,94.971 243.140 C 95.731 242.794,95.886 242.545,95.575 242.170 C 95.254 241.783,95.395 241.692,96.178 241.778 C 96.888 241.856,97.210 241.693,97.232 241.245 C 97.250 240.864,97.343 240.796,97.458 241.079 C 97.605 241.440,97.894 241.449,98.623 241.117 C 99.327 240.796,99.482 240.540,99.187 240.184 C 98.900 239.838,98.956 239.626,99.377 239.464 C 99.706 239.338,100.081 239.408,100.211 239.619 C 100.360 239.859,100.752 239.840,101.259 239.569 C 101.704 239.330,101.966 239.033,101.842 238.908 C 101.512 238.579,103.238 237.176,103.655 237.434 C 104.088 237.702,105.599 237.255,105.545 236.876 C 105.431 236.081,105.647 235.582,106.007 235.804 C 106.230 235.942,106.292 236.251,106.145 236.489 C 105.983 236.751,106.063 236.808,106.345 236.634 C 106.602 236.475,106.717 236.190,106.600 236.000 C 106.483 235.810,106.570 235.542,106.793 235.404 C 107.017 235.266,107.203 235.388,107.206 235.676 C 107.211 236.100,107.277 236.098,107.551 235.666 C 107.737 235.372,108.049 235.145,108.245 235.161 C 109.363 235.254,110.031 234.720,109.540 234.127 C 109.112 233.612,109.182 233.543,110.019 233.661 C 110.725 233.761,110.964 233.632,110.871 233.200 C 110.773 232.739,110.854 232.709,111.220 233.069 C 111.943 233.779,113.768 232.884,113.140 232.128 C 112.778 231.691,112.831 231.637,113.409 231.859 C 113.948 232.066,114.047 232.000,113.800 231.600 C 113.562 231.215,113.645 231.132,114.097 231.305 C 114.468 231.447,115.026 231.202,115.462 230.704 C 115.868 230.241,115.952 230.008,115.648 230.187 C 115.269 230.410,115.154 230.337,115.281 229.956 C 115.383 229.650,115.691 229.400,115.966 229.400 C 116.741 229.400,117.677 227.917,117.201 227.441 C 116.641 226.881,116.700 225.068,117.300 224.421 C 117.602 224.096,117.619 223.984,117.342 224.139 C 117.090 224.280,116.777 224.117,116.646 223.777 C 116.511 223.423,116.578 223.263,116.805 223.403 C 117.022 223.537,117.200 223.457,117.200 223.224 C 117.200 222.991,117.009 222.800,116.776 222.800 C 116.543 222.800,116.488 222.575,116.653 222.300 C 116.887 221.911,116.814 221.913,116.326 222.308 C 115.799 222.735,115.664 222.687,115.486 222.008 C 115.345 221.468,115.429 221.287,115.737 221.464 C 115.992 221.610,115.764 221.250,115.230 220.665 C 114.204 219.537,113.550 219.176,114.408 220.209 C 114.827 220.715,114.808 220.778,114.296 220.581 C 113.957 220.451,113.593 220.015,113.487 219.612 C 113.303 218.907,111.874 217.859,111.546 218.188 M326.400 219.800 C 326.808 220.291,326.780 220.400,326.249 220.400 C 325.892 220.400,325.600 220.130,325.600 219.800 C 325.600 219.470,325.668 219.200,325.751 219.200 C 325.834 219.200,326.126 219.470,326.400 219.800 M119.467 233.867 C 119.099 234.234,119.129 237.200,119.500 237.200 C 119.665 237.200,119.800 236.390,119.800 235.400 C 119.800 234.410,119.785 233.600,119.767 233.600 C 119.748 233.600,119.613 233.720,119.467 233.867 M224.790 245.162 C 221.125 245.682,219.691 246.994,216.447 252.800 C 214.019 257.145,206.012 270.859,199.165 282.402 C 197.012 286.033,195.021 289.858,194.742 290.902 C 194.432 292.058,194.008 292.800,193.655 292.800 C 193.195 292.800,193.222 292.961,193.788 293.587 C 194.180 294.019,194.500 294.843,194.500 295.417 C 194.500 296.207,194.826 296.616,195.841 297.100 C 196.814 297.564,197.072 297.872,196.781 298.223 C 196.498 298.564,196.589 298.790,197.090 298.989 C 198.264 299.456,199.677 299.649,199.470 299.314 C 199.363 299.141,202.391 299.000,206.198 299.000 C 210.006 299.000,213.038 299.135,212.937 299.300 C 212.836 299.465,209.838 299.640,206.276 299.688 L 199.800 299.777 205.800 299.892 C 212.491 300.021,213.127 300.124,212.426 300.969 C 212.123 301.334,212.101 301.615,212.363 301.777 C 212.584 301.914,212.662 302.294,212.536 302.623 C 212.370 303.055,212.166 303.104,211.800 302.800 C 211.432 302.494,211.226 302.555,211.047 303.023 C 210.704 303.917,210.737 304.086,211.200 303.800 C 211.420 303.664,211.600 303.700,211.600 303.880 C 211.600 304.060,211.226 304.441,210.770 304.726 C 210.175 305.098,210.055 305.384,210.347 305.736 C 210.572 306.008,210.608 306.463,210.427 306.756 C 210.175 307.164,210.031 307.174,209.800 306.800 C 209.570 306.428,209.420 306.441,209.156 306.857 C 208.688 307.595,208.712 308.102,209.200 307.800 C 209.420 307.664,209.600 307.700,209.600 307.880 C 209.600 308.060,209.226 308.441,208.770 308.726 C 208.175 309.098,208.055 309.384,208.347 309.736 C 208.572 310.008,208.608 310.463,208.427 310.756 C 208.175 311.164,208.031 311.174,207.800 310.800 C 207.570 310.428,207.420 310.441,207.156 310.857 C 206.688 311.595,206.712 312.102,207.200 311.800 C 207.420 311.664,207.600 311.700,207.600 311.880 C 207.600 312.060,207.226 312.441,206.770 312.726 C 206.175 313.098,206.055 313.384,206.347 313.736 C 206.572 314.008,206.608 314.463,206.427 314.756 C 206.175 315.164,206.031 315.174,205.800 314.800 C 205.570 314.428,205.420 314.441,205.156 314.857 C 204.688 315.595,204.712 316.102,205.200 315.800 C 205.420 315.664,205.600 315.700,205.600 315.880 C 205.600 316.060,205.219 316.446,204.753 316.737 C 204.166 317.103,204.034 317.394,204.322 317.682 C 204.550 317.910,204.637 318.361,204.513 318.682 C 204.330 319.161,204.227 319.170,203.950 318.734 C 203.673 318.295,203.611 318.294,203.606 318.729 C 203.603 319.019,203.317 319.540,202.971 319.886 C 202.609 320.248,202.432 320.874,202.554 321.361 C 202.671 321.826,202.582 322.475,202.357 322.803 C 202.045 323.259,202.002 323.163,202.176 322.400 L 202.404 321.400 201.909 322.400 C 201.637 322.950,201.186 323.638,200.907 323.929 C 200.290 324.572,200.249 325.200,200.824 325.200 C 201.057 325.200,201.134 325.383,200.996 325.607 C 200.858 325.830,200.532 325.886,200.272 325.730 C 199.953 325.538,199.963 325.648,200.305 326.070 C 200.720 326.583,200.685 326.792,200.105 327.247 C 199.465 327.749,199.451 327.735,199.949 327.100 C 200.289 326.666,200.333 326.400,200.063 326.400 C 199.411 326.400,198.658 328.018,198.573 329.600 C 198.467 331.556,198.454 331.600,197.951 331.600 C 197.641 331.600,197.656 331.415,198.000 331.000 C 198.331 330.601,198.351 330.400,198.059 330.400 C 197.397 330.400,196.368 332.652,196.671 333.440 C 196.872 333.964,196.798 334.048,196.368 333.789 C 195.900 333.507,195.888 333.555,196.299 334.063 C 196.825 334.713,195.632 336.699,195.059 336.126 C 194.917 335.983,194.785 336.032,194.766 336.233 C 194.747 336.435,194.689 337.165,194.638 337.856 C 194.545 339.114,193.513 340.580,193.048 340.114 C 192.911 339.978,192.785 340.032,192.766 340.233 C 192.747 340.435,192.689 341.165,192.638 341.856 C 192.545 343.114,191.513 344.580,191.048 344.114 C 190.911 343.978,190.785 344.032,190.766 344.233 C 190.747 344.435,190.689 345.165,190.638 345.856 C 190.550 347.048,189.521 348.588,189.097 348.164 C 188.988 348.055,188.792 348.243,188.662 348.583 C 188.532 348.922,188.599 349.200,188.813 349.200 C 189.026 349.200,189.200 349.470,189.200 349.800 C 189.200 350.130,189.020 350.400,188.800 350.400 C 188.224 350.400,188.306 351.495,188.900 351.736 C 189.276 351.889,189.252 352.044,188.800 352.363 C 188.413 352.637,188.373 352.790,188.687 352.794 C 188.977 352.798,189.071 353.070,188.919 353.466 C 188.748 353.913,188.817 354.036,189.132 353.842 C 189.429 353.658,189.600 353.843,189.600 354.349 C 189.600 354.788,189.933 355.252,190.339 355.381 C 190.746 355.510,191.298 356.098,191.567 356.687 C 191.917 357.455,192.145 357.613,192.372 357.245 C 192.606 356.867,192.742 356.937,192.892 357.509 C 193.100 358.306,195.600 359.478,195.600 358.779 C 195.600 358.571,195.924 358.400,196.320 358.400 C 196.716 358.400,197.219 358.221,197.438 358.002 C 197.656 357.784,198.347 357.562,198.972 357.511 C 199.750 357.446,200.502 356.923,201.354 355.854 C 203.328 353.378,206.318 350.400,206.830 350.400 C 207.156 350.400,207.132 350.612,206.749 351.100 C 206.258 351.726,206.270 351.745,206.862 351.283 C 207.226 350.998,207.474 350.458,207.414 350.083 C 207.254 349.093,207.594 348.697,208.183 349.186 C 208.551 349.491,208.826 349.451,209.166 349.041 C 209.505 348.633,209.514 348.394,209.200 348.200 C 208.886 348.006,208.895 347.767,209.234 347.359 C 209.565 346.960,209.854 346.913,210.200 347.200 C 210.546 347.487,210.835 347.440,211.166 347.041 C 211.505 346.633,211.514 346.394,211.200 346.200 C 210.886 346.006,210.895 345.767,211.234 345.359 C 211.565 344.960,211.854 344.913,212.200 345.200 C 212.546 345.487,212.835 345.440,213.166 345.041 C 213.505 344.633,213.514 344.394,213.200 344.200 C 212.886 344.006,212.895 343.767,213.234 343.359 C 213.565 342.960,213.854 342.913,214.200 343.200 C 214.546 343.487,214.835 343.440,215.166 343.041 C 215.505 342.633,215.514 342.394,215.200 342.200 C 214.886 342.006,214.895 341.767,215.234 341.359 C 215.565 340.960,215.854 340.913,216.200 341.200 C 216.546 341.487,216.835 341.440,217.166 341.041 C 217.505 340.633,217.514 340.394,217.200 340.200 C 216.692 339.886,217.410 338.800,218.125 338.800 C 218.361 338.800,218.204 339.083,217.776 339.428 C 217.209 339.888,217.345 339.867,218.285 339.351 C 219.190 338.854,219.455 338.507,219.180 338.176 C 218.918 337.861,218.978 337.551,219.359 337.234 C 219.767 336.895,220.006 336.886,220.200 337.200 C 220.394 337.514,220.633 337.505,221.041 337.166 C 221.440 336.835,221.487 336.546,221.200 336.200 C 220.913 335.854,220.960 335.565,221.359 335.234 C 221.767 334.895,222.006 334.886,222.200 335.200 C 222.394 335.514,222.633 335.505,223.041 335.166 C 223.440 334.835,223.487 334.546,223.200 334.200 C 222.913 333.854,222.960 333.565,223.359 333.234 C 223.767 332.895,224.006 332.886,224.200 333.200 C 224.394 333.514,224.633 333.505,225.041 333.166 C 225.440 332.835,225.487 332.546,225.200 332.200 C 224.913 331.854,224.960 331.565,225.359 331.234 C 225.687 330.962,226.025 330.918,226.156 331.129 C 226.433 331.577,234.800 323.167,234.800 322.441 C 234.800 321.699,239.805 316.800,240.563 316.800 C 240.913 316.800,241.200 316.609,241.200 316.376 C 241.200 316.143,240.975 316.074,240.700 316.223 C 240.425 316.371,240.920 315.802,241.800 314.957 C 242.680 314.112,243.490 313.413,243.600 313.403 C 244.152 313.357,245.527 311.806,245.318 311.467 C 245.185 311.252,245.252 311.185,245.467 311.318 C 245.895 311.582,247.448 310.001,247.283 309.470 C 247.226 309.289,247.333 309.235,247.519 309.350 C 247.909 309.591,249.437 307.964,249.283 307.470 C 249.226 307.289,249.333 307.235,249.519 307.350 C 249.909 307.591,251.437 305.964,251.283 305.470 C 251.226 305.289,251.342 305.241,251.540 305.363 C 251.737 305.485,252.237 305.102,252.650 304.511 C 253.297 303.584,254.938 301.823,261.873 294.605 C 262.574 293.876,263.271 293.397,263.423 293.540 C 263.575 293.683,263.588 293.437,263.452 292.993 C 263.253 292.342,264.416 290.983,269.444 285.993 C 277.343 278.153,278.000 277.285,278.000 274.687 C 278.000 269.558,275.756 268.400,265.816 268.400 C 261.478 268.400,258.400 268.245,258.400 268.026 C 258.400 267.820,259.615 265.884,261.100 263.724 C 269.044 252.167,269.414 251.219,267.239 247.967 C 266.565 246.959,265.516 245.903,264.907 245.619 C 263.622 245.021,228.603 244.622,224.790 245.162 M118.800 245.976 C 118.800 246.429,118.980 246.800,119.200 246.800 C 119.420 246.800,119.600 246.541,119.600 246.224 C 119.600 245.907,119.420 245.536,119.200 245.400 C 118.980 245.264,118.800 245.523,118.800 245.976 M88.983 246.027 C 88.838 246.262,88.458 246.354,88.139 246.232 C 87.815 246.107,87.666 246.184,87.803 246.405 C 88.171 247.000,89.084 246.879,89.345 246.200 C 89.610 245.509,89.373 245.396,88.983 246.027 M119.467 247.467 C 119.099 247.834,119.129 250.800,119.500 250.800 C 119.665 250.800,119.800 249.990,119.800 249.000 C 119.800 248.010,119.785 247.200,119.767 247.200 C 119.748 247.200,119.613 247.320,119.467 247.467 M250.000 257.593 C 250.000 257.809,247.858 261.213,245.240 265.156 C 239.908 273.188,239.593 273.977,240.718 276.480 C 242.365 280.143,244.079 280.823,251.499 280.756 C 254.194 280.731,256.427 280.849,256.461 281.016 C 256.557 281.494,219.444 318.931,219.300 318.500 C 219.229 318.288,220.857 314.714,222.917 310.558 C 224.977 306.401,227.620 301.059,228.791 298.686 C 233.711 288.716,231.731 286.000,219.541 286.000 C 211.691 286.000,211.574 285.972,212.451 284.274 C 213.380 282.476,227.618 258.287,228.093 257.700 C 228.603 257.070,250.000 256.965,250.000 257.593 M124.400 264.243 C 124.400 265.024,124.101 264.936,123.605 264.009 C 123.259 263.364,123.294 263.261,123.791 263.452 C 124.126 263.580,124.400 263.936,124.400 264.243 M192.678 293.859 C 193.194 293.971,193.473 294.265,193.355 294.573 C 193.244 294.861,193.460 295.214,193.834 295.358 C 194.351 295.556,194.413 295.497,194.091 295.109 C 193.858 294.829,193.698 294.420,193.734 294.200 C 193.770 293.980,193.350 293.771,192.800 293.734 C 191.962 293.680,191.942 293.700,192.678 293.859 M233.798 323.602 C 233.398 324.044,232.985 324.318,232.879 324.212 C 232.610 323.943,233.608 322.800,234.111 322.800 C 234.338 322.800,234.197 323.161,233.798 323.602 M231.798 325.602 C 231.398 326.044,230.985 326.318,230.879 326.212 C 230.610 325.943,231.608 324.800,232.111 324.800 C 232.338 324.800,232.197 325.161,231.798 325.602 M229.798 327.602 C 229.398 328.044,228.985 328.318,228.879 328.212 C 228.610 327.943,229.608 326.800,230.111 326.800 C 230.338 326.800,230.197 327.161,229.798 327.602 M227.798 329.602 C 227.398 330.044,226.985 330.318,226.879 330.212 C 226.610 329.943,227.608 328.800,228.111 328.800 C 228.338 328.800,228.197 329.161,227.798 329.602 M195.200 357.977 C 195.200 358.184,194.816 358.280,194.346 358.190 C 193.053 357.941,192.930 357.600,194.133 357.600 C 194.720 357.600,195.200 357.770,195.200 357.977 " stroke="none" fill="#241b14" fill-rule="evenodd"></path><path id="path3" d="M203.780 62.200 C 203.780 69.900,203.834 72.993,203.899 69.074 C 203.965 65.155,203.965 58.855,203.899 55.074 C 203.834 51.293,203.780 54.500,203.780 62.200 M195.907 96.690 C 196.626 96.779,197.706 96.777,198.307 96.686 C 198.908 96.595,198.320 96.522,197.000 96.524 C 195.680 96.526,195.188 96.601,195.907 96.690 M203.500 97.482 C 203.995 97.578,204.805 97.578,205.300 97.482 C 205.795 97.387,205.390 97.309,204.400 97.309 C 203.410 97.309,203.005 97.387,203.500 97.482 M86.100 104.676 C 86.485 104.776,87.115 104.776,87.500 104.676 C 87.885 104.575,87.570 104.493,86.800 104.493 C 86.030 104.493,85.715 104.575,86.100 104.676 M192.105 110.687 C 192.714 110.779,193.614 110.777,194.105 110.682 C 194.597 110.587,194.100 110.511,193.000 110.514 C 191.900 110.517,191.497 110.595,192.105 110.687 M199.305 110.687 C 199.914 110.779,200.814 110.777,201.305 110.682 C 201.797 110.587,201.300 110.511,200.200 110.514 C 199.100 110.517,198.697 110.595,199.305 110.687 M79.293 112.800 C 79.293 113.570,79.375 113.885,79.476 113.500 C 79.576 113.115,79.576 112.485,79.476 112.100 C 79.375 111.715,79.293 112.030,79.293 112.800 M167.900 117.029 C 166.349 117.870,166.525 118.161,168.100 117.359 C 169.608 116.593,169.875 116.394,169.367 116.416 C 169.165 116.425,168.505 116.701,167.900 117.029 M117.301 125.000 C 117.305 125.880,117.387 126.193,117.483 125.695 C 117.579 125.198,117.575 124.478,117.475 124.095 C 117.375 123.713,117.296 124.120,117.301 125.000 M153.775 126.500 L 152.600 127.800 153.900 126.625 C 154.615 125.979,155.200 125.394,155.200 125.325 C 155.200 125.016,154.870 125.288,153.775 126.500 M238.400 126.125 C 238.400 126.194,238.985 126.779,239.700 127.425 L 241.000 128.600 239.825 127.300 C 238.730 126.088,238.400 125.816,238.400 126.125 M149.781 130.100 L 148.200 131.800 149.900 130.219 C 151.481 128.748,151.784 128.400,151.481 128.400 C 151.416 128.400,150.651 129.165,149.781 130.100 M109.400 133.200 C 109.264 133.420,109.523 133.600,109.976 133.600 C 110.429 133.600,110.800 133.420,110.800 133.200 C 110.800 132.980,110.541 132.800,110.224 132.800 C 109.907 132.800,109.536 132.980,109.400 133.200 M282.000 133.200 C 282.000 133.420,282.450 133.600,283.000 133.600 C 283.550 133.600,284.000 133.420,284.000 133.200 C 284.000 132.980,283.550 132.800,283.000 132.800 C 282.450 132.800,282.000 132.980,282.000 133.200 M238.917 162.697 C 240.411 162.774,242.751 162.774,244.117 162.696 C 245.482 162.618,244.260 162.555,241.400 162.555 C 238.540 162.556,237.422 162.620,238.917 162.697 M233.300 163.076 C 233.685 163.176,234.315 163.176,234.700 163.076 C 235.085 162.975,234.770 162.893,234.000 162.893 C 233.230 162.893,232.915 162.975,233.300 163.076 M223.800 164.800 C 223.296 165.017,223.222 165.144,223.600 165.144 C 223.930 165.144,224.560 164.989,225.000 164.800 C 225.504 164.583,225.578 164.456,225.200 164.456 C 224.870 164.456,224.240 164.611,223.800 164.800 M118.101 167.400 C 118.105 168.280,118.187 168.593,118.283 168.095 C 118.379 167.598,118.375 166.878,118.275 166.495 C 118.175 166.113,118.096 166.520,118.101 167.400 M274.493 167.200 C 274.493 167.970,274.575 168.285,274.676 167.900 C 274.776 167.515,274.776 166.885,274.676 166.500 C 274.575 166.115,274.493 166.430,274.493 167.200 M75.526 168.300 C 79.776 168.364,86.616 168.364,90.726 168.299 C 94.837 168.234,91.360 168.181,83.000 168.181 C 74.640 168.182,71.277 168.235,75.526 168.300 M301.900 168.299 C 306.135 168.364,313.065 168.364,317.300 168.299 C 321.535 168.235,318.070 168.182,309.600 168.182 C 301.130 168.182,297.665 168.235,301.900 168.299 M117.734 176.000 C 117.734 177.650,117.805 178.325,117.891 177.500 C 117.978 176.675,117.978 175.325,117.891 174.500 C 117.805 173.675,117.734 174.350,117.734 176.000 M131.331 175.800 C 131.333 177.340,131.405 177.921,131.492 177.091 C 131.579 176.261,131.577 175.001,131.489 174.291 C 131.400 173.581,131.329 174.260,131.331 175.800 M103.714 175.800 C 103.717 176.900,103.795 177.303,103.887 176.695 C 103.979 176.086,103.977 175.186,103.882 174.695 C 103.787 174.203,103.711 174.700,103.714 175.800 M238.915 175.096 C 240.188 175.176,242.168 175.175,243.315 175.094 C 244.462 175.014,243.420 174.949,241.000 174.950 C 238.580 174.951,237.642 175.016,238.915 175.096 M76.300 183.499 C 80.095 183.565,86.305 183.565,90.100 183.499 C 93.895 183.434,90.790 183.380,83.200 183.380 C 75.610 183.380,72.505 183.434,76.300 183.499 M118.101 184.600 C 118.105 185.480,118.187 185.793,118.283 185.295 C 118.379 184.798,118.375 184.078,118.275 183.695 C 118.175 183.313,118.096 183.720,118.101 184.600 M302.700 183.499 C 306.495 183.565,312.705 183.565,316.500 183.499 C 320.295 183.434,317.190 183.380,309.600 183.380 C 302.010 183.380,298.905 183.434,302.700 183.499 M174.100 186.697 C 175.585 186.774,178.015 186.774,179.500 186.697 C 180.985 186.620,179.770 186.557,176.800 186.557 C 173.830 186.557,172.615 186.620,174.100 186.697 M277.800 190.400 C 278.659 191.280,279.452 192.000,279.562 192.000 C 279.672 192.000,279.059 191.280,278.200 190.400 C 277.341 189.520,276.548 188.800,276.438 188.800 C 276.328 188.800,276.941 189.520,277.800 190.400 M174.500 199.094 C 175.545 199.176,177.255 199.176,178.300 199.094 C 179.345 199.012,178.490 198.944,176.400 198.944 C 174.310 198.944,173.455 199.012,174.500 199.094 M108.905 218.287 C 109.514 218.379,110.414 218.377,110.905 218.282 C 111.397 218.187,110.900 218.111,109.800 218.114 C 108.700 218.117,108.297 218.195,108.905 218.287 M117.293 226.000 C 117.293 226.770,117.375 227.085,117.476 226.700 C 117.576 226.315,117.576 225.685,117.476 225.300 C 117.375 224.915,117.293 225.230,117.293 226.000 M313.600 226.200 C 314.346 226.970,315.047 227.600,315.157 227.600 C 315.267 227.600,314.746 226.970,314.000 226.200 C 313.254 225.430,312.553 224.800,312.443 224.800 C 312.333 224.800,312.854 225.430,313.600 226.200 M119.701 235.400 C 119.705 236.280,119.787 236.593,119.883 236.095 C 119.979 235.598,119.975 234.878,119.875 234.495 C 119.775 234.113,119.696 234.520,119.701 235.400 M79.293 238.800 C 79.293 239.570,79.375 239.885,79.476 239.500 C 79.576 239.115,79.576 238.485,79.476 238.100 C 79.375 237.715,79.293 238.030,79.293 238.800 M132.924 240.200 C 132.926 241.520,133.001 242.012,133.090 241.293 C 133.179 240.574,133.177 239.494,133.086 238.893 C 132.995 238.292,132.922 238.880,132.924 240.200 M119.337 242.200 C 119.339 243.960,119.409 244.630,119.493 243.689 C 119.578 242.749,119.577 241.309,119.491 240.489 C 119.405 239.670,119.336 240.440,119.337 242.200 M132.914 245.000 C 132.917 246.100,132.995 246.503,133.087 245.895 C 133.179 245.286,133.177 244.386,133.082 243.895 C 132.987 243.403,132.911 243.900,132.914 245.000 M236.512 244.695 C 237.564 244.777,239.184 244.776,240.112 244.692 C 241.040 244.608,240.180 244.541,238.200 244.542 C 236.220 244.543,235.460 244.612,236.512 244.695 M224.705 245.083 C 225.202 245.179,225.922 245.175,226.305 245.075 C 226.687 244.975,226.280 244.896,225.400 244.901 C 224.520 244.905,224.207 244.987,224.705 245.083 M258.700 245.093 C 259.635 245.177,261.165 245.177,262.100 245.093 C 263.035 245.009,262.270 244.940,260.400 244.940 C 258.530 244.940,257.765 245.009,258.700 245.093 M337.742 250.600 C 337.741 252.580,337.808 253.440,337.892 252.512 C 337.976 251.584,337.977 249.964,337.895 248.912 C 337.812 247.860,337.743 248.620,337.742 250.600 M119.701 249.000 C 119.705 249.880,119.787 250.193,119.883 249.695 C 119.979 249.198,119.975 248.478,119.875 248.095 C 119.775 247.713,119.696 248.120,119.701 249.000 M233.700 257.499 C 236.725 257.567,241.675 257.567,244.700 257.499 C 247.725 257.431,245.250 257.375,239.200 257.375 C 233.150 257.375,230.675 257.431,233.700 257.499 M261.680 268.298 C 263.594 268.371,266.834 268.371,268.880 268.298 C 270.926 268.226,269.360 268.166,265.400 268.165 C 261.440 268.165,259.766 268.224,261.680 268.298 M278.093 274.800 C 278.093 275.570,278.175 275.885,278.276 275.500 C 278.376 275.115,278.376 274.485,278.276 274.100 C 278.175 273.715,278.093 274.030,278.093 274.800 M215.500 285.898 C 217.535 285.971,220.865 285.971,222.900 285.898 C 224.935 285.825,223.270 285.766,219.200 285.766 C 215.130 285.766,213.465 285.825,215.500 285.898 M264.607 290.793 C 263.752 291.669,263.130 292.445,263.226 292.518 C 263.322 292.591,264.098 291.874,264.952 290.925 C 266.901 288.759,266.677 288.673,264.607 290.793 M185.900 293.496 C 187.275 293.574,189.525 293.574,190.900 293.496 C 192.275 293.418,191.150 293.354,188.400 293.354 C 185.650 293.354,184.525 293.418,185.900 293.496 M263.461 293.500 C 263.359 293.665,266.093 293.754,269.537 293.697 C 281.098 293.507,282.267 293.363,272.924 293.281 C 267.822 293.237,263.563 293.335,263.461 293.500 M229.597 308.300 L 219.800 318.200 229.700 308.403 C 235.145 303.015,239.600 298.560,239.600 298.503 C 239.600 298.220,238.701 299.101,229.597 308.300 M173.701 299.200 C 173.790 299.530,174.299 299.833,174.831 299.874 C 175.595 299.932,175.631 299.901,175.000 299.728 C 174.560 299.607,174.051 299.303,173.870 299.054 C 173.651 298.754,173.594 298.804,173.701 299.200 M169.300 299.476 C 169.685 299.576,170.315 299.576,170.700 299.476 C 171.085 299.375,170.770 299.293,170.000 299.293 C 169.230 299.293,168.915 299.375,169.300 299.476 M294.100 299.476 C 294.485 299.576,295.115 299.576,295.500 299.476 C 295.885 299.375,295.570 299.293,294.800 299.293 C 294.030 299.293,293.715 299.375,294.100 299.476 M288.705 299.883 C 289.202 299.979,289.922 299.975,290.305 299.875 C 290.687 299.775,290.280 299.696,289.400 299.701 C 288.520 299.705,288.207 299.787,288.705 299.883 M197.373 357.968 C 197.168 358.163,196.640 358.409,196.200 358.515 C 195.583 358.663,195.647 358.718,196.476 358.754 C 197.068 358.779,197.671 358.608,197.816 358.373 C 198.165 357.809,197.847 357.518,197.373 357.968 " stroke="none" fill="#4c4444" fill-rule="evenodd"></path><path id="path4" d="M266.954 64.977 C 266.832 65.294,266.803 65.879,266.889 66.277 C 266.987 66.728,267.124 66.512,267.254 65.700 C 267.471 64.338,267.330 63.996,266.954 64.977 M194.662 96.900 C 194.764 97.065,195.816 97.200,197.000 97.200 C 198.184 97.200,199.236 97.065,199.338 96.900 C 199.440 96.735,198.388 96.600,197.000 96.600 C 195.612 96.600,194.560 96.735,194.662 96.900 M188.645 97.128 C 188.533 97.308,188.973 97.377,189.621 97.282 C 190.270 97.187,190.800 97.040,190.800 96.955 C 190.800 96.650,188.843 96.807,188.645 97.128 M202.657 97.107 C 202.553 97.276,203.172 97.348,204.034 97.265 C 204.895 97.183,205.600 97.045,205.600 96.958 C 205.600 96.660,202.847 96.800,202.657 97.107 M306.200 104.800 L 305.000 105.105 306.076 105.153 C 306.668 105.179,307.264 105.020,307.400 104.800 C 307.536 104.580,307.592 104.421,307.524 104.447 C 307.456 104.473,306.860 104.632,306.200 104.800 M195.705 110.687 C 196.314 110.779,197.214 110.777,197.705 110.682 C 198.197 110.587,197.700 110.511,196.600 110.514 C 195.500 110.517,195.097 110.595,195.705 110.687 M116.901 125.000 C 116.905 125.880,116.987 126.193,117.083 125.695 C 117.179 125.198,117.175 124.478,117.075 124.095 C 116.975 123.713,116.896 124.120,116.901 125.000 M235.700 175.476 C 236.085 175.576,236.715 175.576,237.100 175.476 C 237.485 175.375,237.170 175.293,236.400 175.293 C 235.630 175.293,235.315 175.375,235.700 175.476 M244.900 175.476 C 245.285 175.576,245.915 175.576,246.300 175.476 C 246.685 175.375,246.370 175.293,245.600 175.293 C 244.830 175.293,244.515 175.375,244.900 175.476 M195.578 180.700 L 194.200 182.200 195.700 180.822 C 196.525 180.063,197.200 179.388,197.200 179.322 C 197.200 179.016,196.862 179.304,195.578 180.700 M76.300 183.099 C 80.095 183.165,86.305 183.165,90.100 183.099 C 93.895 183.034,90.790 182.980,83.200 182.980 C 75.610 182.980,72.505 183.034,76.300 183.099 M301.000 183.085 C 313.117 183.366,323.508 183.373,323.339 183.100 C 323.236 182.935,317.088 182.839,309.676 182.886 C 302.264 182.934,298.360 183.023,301.000 183.085 M274.800 187.725 C 274.800 187.794,275.385 188.379,276.100 189.025 L 277.400 190.200 276.225 188.900 C 275.130 187.688,274.800 187.416,274.800 187.725 M203.588 190.700 L 201.000 193.400 203.700 190.812 C 205.185 189.388,206.400 188.173,206.400 188.112 C 206.400 187.817,205.993 188.192,203.588 190.700 M279.583 192.500 C 280.564 193.545,281.419 194.400,281.483 194.400 C 281.784 194.400,281.466 194.041,279.700 192.383 L 277.800 190.600 279.583 192.500 M171.700 199.476 C 172.085 199.576,172.715 199.576,173.100 199.476 C 173.485 199.375,173.170 199.293,172.400 199.293 C 171.630 199.293,171.315 199.375,171.700 199.476 M179.300 199.476 C 179.685 199.576,180.315 199.576,180.700 199.476 C 181.085 199.375,180.770 199.293,180.000 199.293 C 179.230 199.293,178.915 199.375,179.300 199.476 M145.781 211.700 L 144.200 213.400 145.900 211.819 C 146.835 210.949,147.600 210.184,147.600 210.119 C 147.600 209.816,147.252 210.119,145.781 211.700 M291.600 213.725 C 291.600 213.794,292.185 214.379,292.900 215.025 L 294.200 216.200 293.025 214.900 C 291.930 213.688,291.600 213.416,291.600 213.725 M117.067 224.667 C 116.703 225.031,116.728 227.109,117.100 227.338 C 117.265 227.440,117.400 226.821,117.400 225.962 C 117.400 225.103,117.385 224.400,117.367 224.400 C 117.348 224.400,117.213 224.520,117.067 224.667 M133.293 238.400 C 133.293 239.170,133.375 239.485,133.476 239.100 C 133.576 238.715,133.576 238.085,133.476 237.700 C 133.375 237.315,133.293 237.630,133.293 238.400 M118.860 242.076 C 118.827 243.768,118.935 245.237,119.100 245.339 C 119.265 245.442,119.349 244.507,119.287 243.263 C 119.092 239.356,118.922 238.885,118.860 242.076 M226.900 244.697 C 228.385 244.774,230.815 244.774,232.300 244.697 C 233.785 244.620,232.570 244.557,229.600 244.557 C 226.630 244.557,225.415 244.620,226.900 244.697 M246.924 244.699 C 249.962 244.767,254.822 244.767,257.724 244.699 C 260.626 244.631,258.140 244.575,252.200 244.575 C 246.260 244.575,243.886 244.631,246.924 244.699 M222.176 245.422 C 221.412 246.034,221.413 246.038,222.200 245.676 C 222.640 245.474,223.270 245.208,223.600 245.086 C 224.118 244.893,224.115 244.859,223.576 244.832 C 223.234 244.814,222.604 245.080,222.176 245.422 M133.293 247.200 C 133.293 247.970,133.375 248.285,133.476 247.900 C 133.576 247.515,133.576 246.885,133.476 246.500 C 133.375 246.115,133.293 246.430,133.293 247.200 M268.493 251.200 C 268.493 251.970,268.575 252.285,268.676 251.900 C 268.776 251.515,268.776 250.885,268.676 250.500 C 268.575 250.115,268.493 250.430,268.493 251.200 M134.456 253.600 C 134.456 253.930,134.611 254.560,134.800 255.000 C 135.017 255.504,135.144 255.578,135.144 255.200 C 135.144 254.870,134.989 254.240,134.800 253.800 C 134.583 253.296,134.456 253.222,134.456 253.600 M136.428 259.400 C 136.428 259.620,136.686 260.250,137.000 260.800 C 137.314 261.350,137.572 261.620,137.572 261.400 C 137.572 261.180,137.314 260.550,137.000 260.000 C 136.686 259.450,136.428 259.180,136.428 259.400 M320.865 264.617 C 320.195 266.088,320.323 266.402,321.047 265.065 C 321.386 264.440,321.588 263.854,321.496 263.763 C 321.405 263.671,321.121 264.056,320.865 264.617 M275.200 268.925 C 275.200 268.994,275.785 269.579,276.500 270.225 L 277.800 271.400 276.625 270.100 C 275.530 268.888,275.200 268.616,275.200 268.925 M316.575 271.868 C 315.959 272.676,315.659 273.211,315.909 273.056 C 316.421 272.740,318.153 270.400,317.875 270.400 C 317.776 270.400,317.191 271.061,316.575 271.868 M145.600 273.000 C 146.795 274.210,147.863 275.200,147.973 275.200 C 148.083 275.200,147.195 274.210,146.000 273.000 C 144.805 271.790,143.737 270.800,143.627 270.800 C 143.517 270.800,144.405 271.790,145.600 273.000 M174.700 285.882 C 175.195 285.978,176.005 285.978,176.500 285.882 C 176.995 285.787,176.590 285.709,175.600 285.709 C 174.610 285.709,174.205 285.787,174.700 285.882 M288.700 285.882 C 289.195 285.978,290.005 285.978,290.500 285.882 C 290.995 285.787,290.590 285.709,289.600 285.709 C 288.610 285.709,288.205 285.787,288.700 285.882 M179.233 286.500 C 179.325 286.555,179.940 287.050,180.600 287.600 L 181.800 288.600 180.830 287.500 C 180.297 286.895,179.682 286.400,179.464 286.400 C 179.245 286.400,179.142 286.445,179.233 286.500 M185.000 293.063 C 188.801 293.355,193.511 293.376,193.340 293.100 C 193.237 292.935,190.958 292.831,188.276 292.870 C 185.594 292.908,184.120 292.995,185.000 293.063 M268.123 293.099 C 270.720 293.169,274.860 293.168,277.323 293.098 C 279.785 293.028,277.660 292.971,272.600 292.972 C 267.540 292.972,265.525 293.029,268.123 293.099 M260.938 295.417 C 260.808 295.757,260.813 296.147,260.951 296.284 C 261.088 296.421,261.200 296.247,261.200 295.896 C 261.200 295.545,261.515 295.176,261.900 295.076 C 262.556 294.904,262.555 294.890,261.887 294.846 C 261.496 294.821,261.068 295.078,260.938 295.417 M168.662 299.100 C 168.560 299.265,169.162 299.400,170.000 299.400 C 170.838 299.400,171.440 299.265,171.338 299.100 C 171.236 298.935,170.634 298.800,170.000 298.800 C 169.366 298.800,168.764 298.935,168.662 299.100 M204.671 352.100 C 203.086 353.646,201.826 355.602,202.805 354.997 C 203.022 354.863,203.200 354.489,203.200 354.166 C 203.200 353.844,203.650 353.409,204.200 353.200 C 204.750 352.991,205.200 352.541,205.200 352.200 C 205.200 351.859,205.650 351.409,206.200 351.200 C 207.212 350.815,207.527 350.400,206.807 350.400 C 206.591 350.400,205.630 351.165,204.671 352.100 " stroke="none" fill="#847c7c" fill-rule="evenodd"></path></g></svg>